<?xml version="1.0" standalone="no"?>
<!DOCTYPE svg PUBLIC "-//W3C//DTD SVG 20010904//EN"
 "http://www.w3.org/TR/2001/REC-SVG-20010904/DTD/svg10.dtd">
<svg version="1.0" xmlns="http://www.w3.org/2000/svg"
 width="700.000000pt" height="700.000000pt" viewBox="0 0 700.000000 700.000000"
 preserveAspectRatio="xMidYMid meet">
<metadata>
Created by potrace 1.14, written by Peter Selinger 2001-2017
</metadata>
<g transform="translate(0.000000,700.000000) scale(0.100000,-0.100000)"
fill="#000000" stroke="none">
<path d="M3428 6625 c-2 -1 -32 -5 -68 -9 -191 -17 -372 -78 -540 -179 -125
-76 -275 -207 -350 -306 -14 -18 -30 -38 -35 -44 -6 -7 -32 -46 -57 -87 -126
-202 -191 -424 -197 -666 -1 -60 -3 -110 -4 -111 -1 -1 -225 94 -497 211 -272
117 -702 302 -955 411 -253 108 -479 206 -502 216 -23 10 -44 19 -47 19 -7 0
55 -170 104 -284 174 -409 391 -744 654 -1010 172 -174 335 -303 524 -417 56
-34 102 -64 102 -66 0 -2 -9 -29 -19 -61 -26 -75 -69 -245 -76 -302 -4 -24 -8
-47 -10 -50 -17 -30 -25 -407 -11 -540 59 -557 361 -1090 808 -1427 121 -92
323 -213 392 -236 10 -3 17 -250 7 -266 -4 -4 -96 -41 -206 -80 -110 -40 -222
-81 -250 -91 -62 -23 -328 -119 -665 -240 -242 -86 -303 -110 -297 -116 1 -1
133 -55 292 -119 160 -65 378 -153 485 -197 107 -44 213 -86 235 -95 22 -8 54
-21 70 -28 101 -45 133 -54 138 -41 3 8 27 42 53 77 26 35 61 83 78 105 17 23
38 52 46 64 8 12 44 61 80 110 36 48 97 131 135 184 97 134 233 319 242 331
49 60 53 73 53 160 l0 88 43 -7 c23 -4 62 -10 87 -14 83 -13 450 -5 535 11 44
8 82 13 84 11 2 -1 4 -43 5 -93 2 -59 7 -96 17 -109 8 -11 136 -185 284 -388
149 -202 281 -383 295 -403 14 -20 42 -59 63 -88 l38 -51 62 24 c34 14 76 31
92 39 17 7 122 50 235 95 113 44 223 89 245 99 22 10 161 67 308 126 147 60
264 112 260 116 -4 4 -66 28 -138 54 -147 53 -434 157 -930 337 l-340 123 -3
142 -3 141 58 28 c219 103 507 338 675 550 248 312 414 720 446 1094 14 167 5
436 -18 545 -5 22 -11 56 -14 75 -3 19 -13 62 -22 95 -8 33 -17 67 -19 75 -2
8 -13 44 -24 79 -12 35 -21 65 -21 66 0 3 101 65 106 65 6 0 225 150 240 164
7 6 31 27 55 46 248 200 472 462 654 765 66 110 182 341 234 470 5 11 14 34
21 50 23 55 79 215 75 215 -3 0 -306 -130 -350 -150 -24 -11 -322 -139 -560
-240 -93 -40 -183 -79 -200 -86 -246 -107 -890 -382 -891 -381 -1 1 -4 61 -7
132 -7 146 -10 164 -42 290 -98 386 -395 725 -770 880 -88 37 -244 79 -333 90
-55 7 -238 15 -244 10z"/>
</g>
</svg>
