<svg
viewBox="0 0 78 20"
fill="none"
xmlns="http://www.w3.org/2000/svg"
>
<g clip-path="url(#clip0_52_620)">
    <path
    fill-rule="evenodd"
    clip-rule="evenodd"
    d="M2.52117 3.27426C2.41815 3.39038 2.42497 3.56854 2.5332 3.67956L15.9091 17.3985C16.0174 17.5095 16.1911 17.5165 16.3043 17.4108C18.2656 15.5804 19.4967 12.9413 19.4967 10.0072C19.4967 4.4804 15.1283 0 9.73966 0C6.87899 0 4.30584 1.26267 2.52117 3.27426ZM0.84938 5.87788C0.799951 5.98966 0.824874 6.12072 0.909487 6.2075L13.4444 19.0638C13.529 19.1506 13.6568 19.1762 13.7658 19.1255C14.0554 18.9908 14.3374 18.842 14.611 18.6799C14.7736 18.5836 14.7985 18.356 14.6657 18.2198L1.73236 4.95484C1.59957 4.81864 1.37767 4.8442 1.28378 5.011C1.1258 5.29164 0.980724 5.58088 0.84938 5.87788ZM0.0889264 9.5592C0.0302355 9.499 -0.000992005 9.41604 0.00453323 9.3311C0.0304102 8.93328 0.078953 8.54184 0.148849 8.1581C0.190759 7.928 0.464891 7.84816 0.626269 8.01366L11.6834 19.3543C11.8448 19.5198 11.7669 19.801 11.5426 19.844C11.1684 19.9157 10.7868 19.9654 10.3989 19.992C10.3161 19.9976 10.2352 19.9656 10.1765 19.9054L0.0889264 9.5592ZM0.767474 12.3518C0.566019 12.1452 0.240919 12.3232 0.314698 12.6054C1.21358 16.0441 3.85376 18.7519 7.20641 19.6739C7.4816 19.7495 7.65518 19.4161 7.45373 19.2095L0.767474 12.3518ZM39.3129 5.507C40.0123 5.507 40.5792 4.9234 40.5792 4.2035C40.5792 3.4836 40.0123 2.9 39.3129 2.9C38.6136 2.9 38.0467 3.4836 38.0467 4.2035C38.0467 4.9234 38.6136 5.507 39.3129 5.507ZM28.4668 16.8749V2.90078H30.7171V14.8304H36.7845V16.8749H28.4668ZM44.4833 11.1727V16.8749H42.3059V6.9711H44.456V8.66862L44.4833 8.64988C44.7019 8.11842 45.0543 7.6745 45.5402 7.3181C46.0259 6.95546 46.6455 6.77414 47.3987 6.77414C48.0668 6.77414 48.674 6.92734 49.2208 7.2337C49.7674 7.53382 50.2046 7.9746 50.5326 8.55608C50.8606 9.13756 51.0246 9.85034 51.0246 10.6944V16.8749H48.8472V11.0039C48.8472 10.2536 48.6528 9.68464 48.2641 9.297C47.8816 8.9031 47.3683 8.70614 46.7244 8.70614C46.3114 8.70614 45.9349 8.79368 45.5948 8.96874C45.2547 9.14382 44.9844 9.41266 44.784 9.7753C44.5835 10.1379 44.4833 10.6037 44.4833 11.1727ZM64.1988 16.7061C64.6968 16.9249 65.2678 17.0344 65.9115 17.0344C66.4399 17.0344 66.8923 16.9656 67.2689 16.828C67.6456 16.6842 67.9553 16.4935 68.1982 16.2559C68.4472 16.0183 68.6446 15.7589 68.7904 15.4775H68.8269V16.8749H70.9132V10.0567C70.9132 9.57522 70.8219 9.13444 70.6398 8.73428C70.4577 8.33412 70.1935 7.98712 69.8471 7.69326C69.5071 7.39938 69.0941 7.1743 68.6081 7.018C68.1224 6.85542 67.5756 6.77414 66.9684 6.77414C66.1363 6.77414 65.4165 6.92108 64.8091 7.21494C64.2077 7.50256 63.7372 7.8902 63.3969 8.3779C63.0568 8.86558 62.8716 9.4158 62.8412 10.0285H64.9458C64.97 9.74092 65.0673 9.48456 65.2373 9.25948C65.4074 9.0344 65.6383 8.85932 65.9298 8.73428C66.2213 8.60298 66.5583 8.53732 66.9411 8.53732C67.3236 8.53732 67.6485 8.60298 67.9159 8.73428C68.1891 8.86558 68.3987 9.04378 68.5443 9.26886C68.6902 9.49394 68.7631 9.75654 68.7631 10.0567V10.1317C68.7631 10.3568 68.6871 10.5225 68.5354 10.6288C68.3895 10.735 68.1405 10.8132 67.7883 10.8632C67.442 10.9132 66.9684 10.9726 66.367 11.0414C65.875 11.0977 65.4013 11.1821 64.9458 11.2946C64.4903 11.4072 64.0833 11.5729 63.7249 11.7917C63.3727 12.0105 63.0933 12.3013 62.8868 12.6639C62.6803 13.0266 62.5772 13.4924 62.5772 14.0613C62.5772 14.7178 62.7228 15.268 63.0143 15.712C63.3059 16.1496 63.7007 16.481 64.1988 16.7061ZM67.7246 15.0461C67.3722 15.2399 66.9379 15.3368 66.4218 15.3368C65.8994 15.3368 65.4832 15.2243 65.1736 14.9992C64.8637 14.7679 64.7089 14.4521 64.7089 14.052C64.7089 13.7393 64.7939 13.4861 64.964 13.2923C65.1402 13.0985 65.3709 12.9453 65.6564 12.8327C65.9419 12.7202 66.2515 12.642 66.5856 12.5983C66.8285 12.5608 67.0655 12.5232 67.2963 12.4857C67.527 12.442 67.7427 12.4013 67.9432 12.3638C68.1436 12.32 68.3137 12.2763 68.4533 12.2325C68.5991 12.1887 68.7054 12.1418 68.7721 12.0918V13.1985C68.7721 13.5861 68.6842 13.9425 68.5079 14.2677C68.3378 14.5865 68.0767 14.846 67.7246 15.0461ZM72.8129 16.8749V6.9711H74.9082V8.60298H74.9357C75.1117 8.04026 75.3881 7.61198 75.7646 7.3181C76.1472 7.018 76.6484 6.86794 77.2679 6.86794C77.4198 6.86794 77.5565 6.87418 77.6778 6.8867C77.8055 6.89294 77.9118 6.8992 77.9968 6.90544V8.92184C77.9178 8.90934 77.778 8.89372 77.5777 8.87496C77.3773 8.8562 77.1647 8.84682 76.9399 8.84682C76.5815 8.84682 76.2537 8.93122 75.9559 9.10004C75.6583 9.26886 75.4214 9.52834 75.2453 9.87846C75.0753 10.2224 74.9903 10.6569 74.9903 11.1821V16.8749H72.8129ZM38.2197 16.8749V6.9711H40.3971V16.8749H38.2197ZM54.6461 16.4341C55.3446 16.878 56.1737 17.1 57.1333 17.1C57.8743 17.1 58.5485 16.9624 59.1559 16.6873C59.7693 16.406 60.2795 16.0215 60.6864 15.5338C61.0934 15.0398 61.3576 14.4709 61.4791 13.8269H59.4293C59.338 14.1207 59.1892 14.3802 58.9827 14.6053C58.7824 14.8241 58.5303 14.9961 58.2267 15.1211C57.9229 15.2462 57.5707 15.3087 57.1698 15.3087C56.6293 15.3087 56.1646 15.1836 55.7759 14.9335C55.3934 14.6834 55.1018 14.3364 54.9014 13.8925C54.7194 13.4839 54.62 13.0212 54.6032 12.5045H61.6066V11.9042C61.6066 11.1415 61.4972 10.4474 61.2786 9.8222C61.0601 9.1907 60.7502 8.64674 60.3493 8.19032C59.9485 7.72764 59.4657 7.37126 58.9008 7.12116C58.3419 6.87106 57.7195 6.74602 57.0331 6.74602C56.1404 6.74602 55.3508 6.96798 54.6644 7.4119C53.978 7.85582 53.4406 8.46856 53.0518 9.2501C52.6632 10.0317 52.4687 10.9257 52.4687 11.9324C52.4687 12.9328 52.6571 13.8237 53.0337 14.6053C53.4102 15.3806 53.9478 15.9902 54.6461 16.4341ZM59.2288 9.87846C59.0283 9.4533 58.7429 9.12506 58.3724 8.89372C58.0019 8.66238 57.5647 8.5467 57.0604 8.5467C56.5624 8.5467 56.1281 8.66238 55.7576 8.89372C55.3933 9.12506 55.1079 9.4533 54.9014 9.87846C54.7539 10.1864 54.6607 10.5365 54.6217 10.9289H59.5082C59.4692 10.5365 59.376 10.1864 59.2288 9.87846Z"
    fill="var(--svg-fill)"
    />
</g>
<defs>
    <clipPath id="clip0_52_620">
    <rect width="78" height="20" fill="var(--svg-fill)" />
    </clipPath>
</defs>
</svg>