<svg
  xmlns="http://www.w3.org/2000/svg"
  xmlns:xlink="http://www.w3.org/1999/xlink"
>
  <defs>
    <symbol
      id="resend"
      width="70"
      height="17"
      viewBox="0 0 77 19"
      fill="none"
      xmlns="http://www.w3.org/2000/svg"
      class="text-neutral-900 dark:text-neutral-100"
    >
      <g clip-path="url(#clip0_52_626)">
        <path
          d="M0.97168 17.8125V1.1875H8.3163C9.34297 1.1875 10.2749 1.425 11.112 1.9C11.9491 2.35917 12.6046 2.98458 13.0785 3.77625C13.5681 4.56792 13.8129 5.47042 13.8129 6.48375C13.8129 7.48125 13.5681 8.39167 13.0785 9.215C12.6046 10.0225 11.9491 10.6637 11.112 11.1387C10.2749 11.6137 9.34297 11.8512 8.3163 11.8512H4.40707V17.8125H0.97168ZM10.3775 17.8125L6.1603 10.3075L9.80891 9.71375L14.5 17.8362L10.3775 17.8125ZM4.40707 8.95375H8.15045C8.57691 8.95375 8.94809 8.85875 9.26399 8.66875C9.59568 8.46292 9.8484 8.18583 10.0221 7.8375C10.1959 7.47334 10.2828 7.06959 10.2828 6.62625C10.2828 6.15125 10.1801 5.73959 9.97476 5.39125C9.76943 5.04292 9.46932 4.77375 9.07445 4.58375C8.67958 4.37792 8.22153 4.275 7.7003 4.275H4.40707V8.95375Z"
          fill="currentcolor"
        />
        <path
          d="M21.3865 18.05C20.0281 18.05 18.8355 17.7729 17.8088 17.2187C16.798 16.6645 16.0083 15.9045 15.4396 14.9387C14.8868 13.9729 14.6104 12.8645 14.6104 11.6137C14.6104 10.6321 14.7684 9.7375 15.0842 8.93C15.4001 8.1225 15.8424 7.42584 16.411 6.84C16.9796 6.23834 17.6509 5.77917 18.4249 5.4625C19.2146 5.13 20.0675 4.96375 20.9837 4.96375C21.8366 4.96375 22.6263 5.12209 23.3529 5.43875C24.0795 5.75542 24.7034 6.19875 25.2246 6.76875C25.7616 7.32292 26.1723 7.98792 26.4566 8.76375C26.7409 9.52375 26.8672 10.3471 26.8357 11.2337L26.812 12.2787H16.7428L16.1977 10.2125H24.04L23.6609 10.64V10.1175C23.6293 9.69 23.4871 9.31 23.2344 8.9775C22.9975 8.62917 22.6895 8.36 22.3105 8.17C21.9314 7.96417 21.5048 7.86125 21.031 7.86125C20.3361 7.86125 19.7438 7.99584 19.254 8.265C18.7802 8.53417 18.417 8.93 18.1642 9.4525C17.9115 9.975 17.7851 10.6083 17.7851 11.3525C17.7851 12.1125 17.9431 12.7695 18.2591 13.3237C18.5908 13.8779 19.0488 14.3133 19.6332 14.63C20.2334 14.9308 20.9362 15.0812 21.7417 15.0812C22.2946 15.0812 22.8001 14.9942 23.2582 14.82C23.7161 14.6458 24.2057 14.345 24.7271 13.9175L26.3382 16.1737C25.8801 16.5854 25.3746 16.9337 24.8219 17.2187C24.269 17.4879 23.7004 17.6937 23.1159 17.8362C22.5315 17.9787 21.9551 18.05 21.3865 18.05Z"
          fill="currentcolor"
        />
        <path
          d="M32.354 18.05C31.1851 18.05 30.1426 17.86 29.2266 17.48C28.3263 17.0842 27.5997 16.5458 27.0469 15.865L29.1555 14.06C29.6293 14.5825 30.1663 14.9625 30.7666 15.2C31.3668 15.4217 31.9669 15.5325 32.5672 15.5325C32.8041 15.5325 33.0173 15.5088 33.2069 15.4613C33.4122 15.398 33.586 15.3188 33.7281 15.2238C33.8703 15.113 33.973 14.9863 34.0361 14.8438C34.1151 14.6855 34.1546 14.5192 34.1546 14.345C34.1546 13.9967 34.0124 13.7275 33.7281 13.5375C33.5702 13.4425 33.3253 13.3396 32.9936 13.2288C32.662 13.1021 32.2355 12.9675 31.7143 12.825C30.9087 12.6192 30.2216 12.3817 29.653 12.1125C29.1002 11.8275 28.658 11.5109 28.3263 11.1625C28.042 10.83 27.8208 10.4738 27.6629 10.0938C27.5207 9.69797 27.4496 9.26255 27.4496 8.78755C27.4496 8.21755 27.576 7.70297 27.8287 7.2438C28.0814 6.7688 28.429 6.36505 28.8712 6.03255C29.3293 5.70005 29.8505 5.44672 30.4349 5.27255C31.0192 5.08255 31.6352 4.98755 32.2829 4.98755C32.9305 4.98755 33.5623 5.06672 34.1783 5.22505C34.7943 5.38339 35.3629 5.61297 35.8841 5.9138C36.4211 6.1988 36.8871 6.53922 37.282 6.93505L35.4813 8.93005C35.197 8.66088 34.8733 8.41547 34.51 8.1938C34.1625 7.97214 33.7992 7.79797 33.4201 7.6713C33.041 7.54464 32.7014 7.4813 32.4013 7.4813C32.1328 7.4813 31.888 7.50505 31.6669 7.55255C31.4616 7.60005 31.2878 7.67922 31.1456 7.79005C31.0035 7.88505 30.893 8.0038 30.814 8.1463C30.7508 8.2888 30.7192 8.44713 30.7192 8.6213C30.7192 8.79547 30.7586 8.96172 30.8376 9.12005C30.9324 9.27839 31.0588 9.41297 31.2167 9.5238C31.3905 9.6188 31.6432 9.72964 31.9749 9.8563C32.3223 9.98297 32.7884 10.1255 33.3727 10.2838C34.1309 10.4896 34.7706 10.7192 35.2918 10.9725C35.8288 11.2259 36.2552 11.5188 36.5712 11.8513C36.8397 12.1363 37.0371 12.4608 37.1635 12.825C37.2899 13.1892 37.353 13.593 37.353 14.0363C37.353 14.8121 37.1319 15.5008 36.6896 16.1025C36.2632 16.7042 35.6709 17.1792 34.9127 17.5275C34.1546 17.8758 33.3016 18.05 32.354 18.05Z"
          fill="currentcolor"
        />
        <path
          d="M44.5143 18.05C43.1559 18.05 41.9634 17.7729 40.9367 17.2187C39.9259 16.6645 39.1361 15.9045 38.5675 14.9387C38.0147 13.9729 37.7383 12.8645 37.7383 11.6137C37.7383 10.6321 37.8962 9.7375 38.2121 8.93C38.5281 8.1225 38.9703 7.42584 39.5389 6.84C40.1075 6.23834 40.7788 5.77917 41.5527 5.4625C42.3425 5.13 43.1955 4.96375 44.1115 4.96375C44.9644 4.96375 45.7542 5.12209 46.4807 5.43875C47.2073 5.75542 47.8312 6.19875 48.3524 6.76875C48.8894 7.32292 49.3001 7.98792 49.5844 8.76375C49.8687 9.52375 49.9951 10.3471 49.9635 11.2337L49.9398 12.2787H39.8706L39.3257 10.2125H47.1678L46.7887 10.64V10.1175C46.7571 9.69 46.615 9.31 46.3623 8.9775C46.1254 8.62917 45.8174 8.36 45.4383 8.17C45.0592 7.96417 44.6327 7.86125 44.1589 7.86125C43.4639 7.86125 42.8716 7.99584 42.382 8.265C41.9081 8.53417 41.5448 8.93 41.2921 9.4525C41.0394 9.975 40.9131 10.6083 40.9131 11.3525C40.9131 12.1125 41.071 12.7695 41.3869 13.3237C41.7186 13.8779 42.1767 14.3133 42.7611 14.63C43.3613 14.9308 44.0641 15.0812 44.8697 15.0812C45.4225 15.0812 45.9279 14.9942 46.386 14.82C46.8441 14.6458 47.3337 14.345 47.8549 13.9175L49.466 16.1737C49.0079 16.5854 48.5025 16.9337 47.9497 17.2187C47.3968 17.4879 46.8282 17.6937 46.2438 17.8362C45.6594 17.9787 45.0829 18.05 44.5143 18.05Z"
          fill="currentcolor"
        />
        <path
          d="M51.2646 17.8125V5.2488H54.4868L54.5816 7.8138L53.9182 8.0988C54.092 7.5288 54.4 7.01422 54.8422 6.55505C55.3003 6.08005 55.8452 5.70005 56.477 5.41505C57.1088 5.13005 57.7722 4.98755 58.4671 4.98755C59.4148 4.98755 60.2046 5.17755 60.8363 5.55755C61.484 5.93755 61.9658 6.51547 62.2816 7.2913C62.6133 8.0513 62.7791 8.99339 62.7791 10.1175V17.8125H59.4148V10.3788C59.4148 9.8088 59.3359 9.3338 59.1779 8.9538C59.02 8.5738 58.7751 8.29672 58.4434 8.12255C58.1276 7.94838 57.7326 7.86922 57.2588 7.88505C56.8797 7.88505 56.5243 7.94839 56.1926 8.07505C55.8768 8.18588 55.6003 8.35214 55.3634 8.5738C55.1424 8.79547 54.9606 9.0488 54.8185 9.3338C54.6922 9.6188 54.629 9.92755 54.629 10.26V17.8125H52.9705C52.6073 17.8125 52.2834 17.8125 51.9991 17.8125C51.7148 17.8125 51.4701 17.8125 51.2646 17.8125Z"
          fill="currentcolor"
        />
        <path
          d="M69.7228 18.05C68.6172 18.05 67.6301 17.773 66.7613 17.2188C65.9083 16.6488 65.2292 15.8808 64.7237 14.915C64.2341 13.9333 63.9893 12.8013 63.9893 11.5188C63.9893 10.268 64.2341 9.15172 64.7237 8.17005C65.2292 7.17255 65.9083 6.39672 66.7613 5.84255C67.6301 5.27255 68.6172 4.98755 69.7228 4.98755C70.3073 4.98755 70.868 5.08255 71.405 5.27255C71.9578 5.44672 72.4474 5.69214 72.8739 6.0088C73.3162 6.32547 73.6716 6.68172 73.94 7.07755C74.2086 7.45755 74.3587 7.85339 74.3902 8.26505L73.5373 8.4313V0.237549H76.9253V17.8125H73.7268L73.5846 14.915L74.248 14.9863C74.2165 15.3821 74.0744 15.7621 73.8216 16.1263C73.5689 16.4905 73.2293 16.823 72.8028 17.1238C72.3922 17.4088 71.9184 17.6383 71.3813 17.8125C70.86 17.9708 70.3073 18.05 69.7228 18.05ZM70.4809 15.2475C71.1128 15.2475 71.6656 15.0892 72.1394 14.7725C72.6133 14.4558 72.9845 14.0205 73.2529 13.4663C73.5215 12.9121 73.6557 12.263 73.6557 11.5188C73.6557 10.7905 73.5215 10.1492 73.2529 9.59505C72.9845 9.04089 72.6133 8.60547 72.1394 8.2888C71.6656 7.97214 71.1128 7.8138 70.4809 7.8138C69.8492 7.8138 69.2963 7.97214 68.8225 8.2888C68.3645 8.60547 68.0012 9.04089 67.7326 9.59505C67.48 10.1492 67.3536 10.7905 67.3536 11.5188C67.3536 12.263 67.48 12.9121 67.7326 13.4663C68.0012 14.0205 68.3645 14.4558 68.8225 14.7725C69.2963 15.0892 69.8492 15.2475 70.4809 15.2475Z"
          fill="currentcolor"
        />
      </g>
      <defs>
        <clipPath id="clip0_52_626">
          <rect width="77" height="19" fill="white" />
        </clipPath>
      </defs>
    </symbol>
    <symbol
      id="makeswift"
      width="96"
      height="19"
      viewBox="0 0 96 19"
      fill="none"
      xmlns="http://www.w3.org/2000/svg"
    >
      <path
        fill-rule="evenodd"
        clip-rule="evenodd"
        d="M13.6 3.91875C13.4769 3.8 13.3538 3.74063 13.1692 3.8H11.3846C11.1385 3.8 10.8923 3.91875 10.7692 4.09688L6.95385 8.84688L4.86154 4.09688C4.73846 3.85938 4.49231 3.74063 4.24615 3.8H2.52308C2.21538 3.8 1.90769 3.97812 1.90769 4.275L0 14.725C0 14.8438 0 15.0219 0.0615385 15.1406C0.184615 15.2594 0.307692 15.3188 0.492308 15.2594H2.27692C2.58462 15.2594 2.89231 15.0219 2.89231 14.725L4 8.55L5.78462 12.5281C5.84615 12.7063 6.03077 12.825 6.21538 12.7656C6.4 12.7656 6.58462 12.6469 6.70769 12.5281L9.90769 8.55L8.8 14.725C8.73846 14.8438 8.8 15.0219 8.86154 15.1406C8.98462 15.2594 9.10769 15.3188 9.29231 15.2594H11.0769C11.3846 15.2594 11.6923 15.0219 11.6923 14.725L13.6 4.275C13.6615 4.15625 13.6615 4.0375 13.6 3.91875ZM21.7846 4.21562C21.7231 3.91875 21.4769 3.68125 21.1692 3.74063H18.8308C18.6462 3.74063 18.5231 3.74062 18.4 3.85938C18.2769 3.97813 18.2154 4.09687 18.1538 4.21562L12.5538 14.6062C12.4308 14.725 12.4308 14.9031 12.4923 15.0813C12.5538 15.2 12.7385 15.3188 12.8615 15.2594H14.8923C15.2 15.2594 15.5077 15.0813 15.5692 14.7844L16.4923 13.0625H20.2462L20.4923 14.725C20.4923 15.0219 20.7385 15.2594 21.0462 15.2C21.0462 15.2 21.0462 15.2 21.1077 15.2H23.0769C23.2615 15.2 23.3846 15.1406 23.5077 15.0219C23.6308 14.9031 23.6308 14.725 23.6308 14.5469L21.7846 4.21562ZM17.5385 10.6281L19.5692 6.70937L20.1231 10.6281H17.5385ZM30.5846 9.14375L35.5692 4.45312C35.6923 4.33437 35.7538 4.15625 35.7538 3.97812C35.6923 3.8 35.5692 3.68125 35.3846 3.74063H33.1692C32.8615 3.8 32.5538 3.91875 32.3692 4.15625L28.6769 7.6L29.2923 4.275C29.3538 4.15625 29.2923 3.97813 29.2308 3.85938C29.1077 3.74062 28.9846 3.68125 28.8 3.74063H26.8923C26.5846 3.74063 26.2769 3.91875 26.2769 4.21562L24.3692 14.6656C24.3077 14.7844 24.3692 14.9625 24.4308 15.0813C24.5538 15.2 24.6769 15.2594 24.8615 15.2H26.7692C27.0769 15.2 27.3846 15.0219 27.3846 14.725L28.1846 10.45L30.7692 14.7844C30.8923 15.0813 31.1385 15.2594 31.5077 15.2594H33.4769C33.6615 15.2594 33.8462 15.2 33.9077 15.0219C33.9692 14.8438 33.9692 14.6656 33.8462 14.5469L30.5846 9.14375ZM43.2615 8.37187C43.1385 8.25313 43.0154 8.25313 42.8923 8.25313H38.7692L39.1385 6.23438H43.5077C43.8154 6.23438 44.1231 6.05625 44.1231 5.7L44.3692 4.33437C44.4308 4.21563 44.3692 4.0375 44.3077 3.91875C44.1846 3.8 44.0615 3.74063 43.8769 3.8H37.1077C36.8 3.8 36.5538 3.97812 36.4923 4.275L34.5846 14.725C34.5231 14.8438 34.5846 15.0219 34.6462 15.1406C34.7692 15.2594 34.8923 15.3188 35.0769 15.2594H41.9077C42.2154 15.2594 42.5231 15.0219 42.5231 14.725L42.7692 13.3594C42.8308 13.2406 42.7692 13.0625 42.7077 12.9437C42.5846 12.825 42.4615 12.7656 42.2769 12.825H37.9077L38.3385 10.6281H42.4615C42.7692 10.6281 43.0769 10.3906 43.0769 10.0938L43.3231 8.7875C43.3846 8.60938 43.3231 8.49063 43.2615 8.37187ZM53.1692 4.21562C52.1231 3.74062 50.9538 3.50312 49.7846 3.5625C48.4923 3.50312 47.2615 3.85938 46.2154 4.5125C45.2923 5.16563 44.8 6.29375 44.8615 7.42188C44.8 8.13437 45.1077 8.84688 45.6615 9.38125C46.2769 9.91563 47.0154 10.3312 47.8154 10.5687C48.3077 10.7469 48.7385 10.925 49.1692 11.1625C49.4154 11.2812 49.6 11.5188 49.6 11.8156C49.6 12.2312 49.3538 12.5875 48.9231 12.7063C48.4308 12.8844 47.8769 13.0031 47.3231 13.0031C46.4615 13.0031 45.6615 12.825 44.9231 12.5281C44.6154 12.4094 44.3077 12.5281 44.1846 12.825C44.1846 12.825 44.1846 12.825 44.1846 12.8844L43.5077 14.1312C43.3846 14.3094 43.4462 14.6062 43.6308 14.7844L43.6923 14.8438C44.1846 15.0813 44.7385 15.2594 45.2923 15.3781C46.0308 15.4969 46.7692 15.5563 47.5077 15.5563C48.8 15.6156 50.0923 15.2594 51.2 14.5469C52.1846 13.8344 52.7385 12.7656 52.6769 11.5781C52.6769 11.1625 52.6154 10.8063 52.4308 10.45C52.2462 10.0938 52 9.79688 51.6923 9.55937C51.3846 9.32188 51.0769 9.14375 50.7692 8.96562C50.4615 8.7875 50.0923 8.60938 49.6 8.43125C49.1077 8.25313 48.6769 8.01562 48.2462 7.77813C48 7.65938 47.8769 7.42188 47.8769 7.18438C47.8769 6.47188 48.4923 6.11562 49.7846 6.11562C50.5231 6.11562 51.2615 6.23438 51.9385 6.47187C52.2462 6.59062 52.5538 6.47188 52.6769 6.23438V6.175L53.3538 4.9875C53.4769 4.75 53.4154 4.5125 53.2308 4.33437C53.1692 4.21563 53.1692 4.21562 53.1692 4.21562ZM70.0308 3.74063H68.0615C67.7538 3.74063 67.4462 3.91875 67.3846 4.21562L65.2923 9.025L64.2462 11.6375L64.0615 9.025L63.6923 4.21562C63.6923 3.91875 63.4462 3.68125 63.1385 3.74063H63.0769H61.4154C61.1077 3.74063 60.8 3.91875 60.6769 4.21562L58.4615 9.025L57.3538 11.6375L57.2308 9.08438L56.9231 4.275C56.9231 3.97812 56.6769 3.74063 56.3692 3.8H56.3077H54.4C54.2769 3.8 54.1539 3.85938 54.0308 3.91875C53.9077 4.0375 53.8462 4.275 53.9077 4.45312L54.9538 14.8438C54.9538 15.1406 55.2 15.3781 55.5077 15.3187H55.5692H57.6615C57.9692 15.3187 58.2769 15.1406 58.4 14.8438L60.5538 10.2719L61.4769 8.075L61.6615 10.2125L62.1538 14.7844C62.1538 15.0813 62.4 15.3187 62.7077 15.3187H62.7692H64.8615C65.1692 15.3187 65.4769 15.1406 65.6 14.8438L70.4615 4.45312C70.5231 4.33437 70.5846 4.15625 70.4615 3.97812C70.3385 3.8 70.2154 3.74063 70.0308 3.74063ZM85.9077 3.74063H79.2615C78.9538 3.74063 78.6462 3.91875 78.6462 4.21562L76.7385 14.6656C76.6769 14.7844 76.7385 14.9625 76.8 15.0813C76.9231 15.2 77.0462 15.2594 77.2308 15.2H79.0769C79.3846 15.2 79.6923 14.9625 79.6923 14.6656L80.3692 10.8063H84.4923C84.8 10.8063 85.1077 10.6281 85.1077 10.2719L85.3538 8.90625C85.4154 8.7875 85.3539 8.60938 85.2923 8.49063C85.1692 8.37187 85.0462 8.3125 84.8615 8.37187H80.8L81.2308 6.11562H85.5385C85.8462 6.11562 86.1538 5.9375 86.1538 5.64062L86.4 4.275C86.4615 4.15625 86.4 3.97813 86.3385 3.85938C86.2154 3.8 86.0308 3.74063 85.9077 3.74063ZM95.9385 3.91875C95.8154 3.8 95.6923 3.74063 95.5077 3.8H87.6923C87.3846 3.8 87.1385 3.97813 87.0769 4.33437L86.7692 5.75938C86.7077 5.87812 86.7692 6.05625 86.8308 6.175C86.9538 6.29375 87.0769 6.35313 87.2615 6.29375H89.6L88.0615 14.6656C88 14.7844 88.0615 14.9625 88.1231 15.0813C88.2462 15.2 88.3692 15.2594 88.5538 15.2H90.4615C90.7692 15.2 91.0769 14.9625 91.0769 14.6656L92.6154 6.29375H95.0154C95.3231 6.29375 95.6308 6.05625 95.6308 5.75938L95.8769 4.275C96 4.15625 96 4.0375 95.9385 3.91875ZM71.8154 6.35313H73.0462L71.9385 10.3313C71.8769 10.5094 72 10.6281 72.1231 10.6875H72.1846H72.7385C72.9231 10.6875 73.0462 10.6281 73.1077 10.45L76.8615 4.39375C76.9846 4.21563 76.9231 3.91875 76.6769 3.8C76.6154 3.74063 76.5538 3.74063 76.4308 3.74063H75.0769L77.2308 0.653125C77.3539 0.475 77.2923 0.178125 77.1077 0.059375C77.1692 0 77.0462 0 76.9846 0H73.5385C73.2923 0 73.0462 0.178125 72.9846 0.415625L71.4462 5.75938C71.3846 5.99687 71.5077 6.23438 71.7538 6.29375C71.7538 6.35313 71.8154 6.35313 71.8154 6.35313ZM73.3538 12.4094H71.3846C71.1385 12.4094 70.8923 12.5875 70.8308 12.825L70.3385 14.725C70.2769 14.9625 70.4 15.2 70.6462 15.2594C70.7077 15.2594 70.7077 15.2594 70.7692 15.2594H72.7385C72.9846 15.2594 73.2308 15.0813 73.2923 14.8438L73.7846 12.9437C73.8462 12.7062 73.7231 12.4688 73.4769 12.4094C73.4154 12.4094 73.4154 12.4094 73.3538 12.4094Z"
        fill="#F02EA6"
      />
    </symbol>
    <symbol
      id="supabase"
      xmlns="http://www.w3.org/2000/svg"
      width="100"
      height="19"
      fill="none"
      class="text-[#1F1F1F] dark:text-neutral-100"
      viewBox="0 0 100 19"
    >
      <g clip-path="url(#a)">
        <path
          fill="currentcolor"
          d="M26.058 11.225c.103.942.98 2.557 3.525 2.557 2.218 0 3.284-1.38 3.284-2.725 0-1.21-.843-2.203-2.51-2.54l-1.204-.252c-.465-.084-.774-.336-.774-.74 0-.47.481-.824 1.083-.824.963 0 1.324.623 1.393 1.11l1.909-.42c-.104-.892-.912-2.388-3.319-2.388-1.823 0-3.164 1.227-3.164 2.707 0 1.16.74 2.12 2.373 2.473l1.118.252c.653.134.911.437.911.807 0 .437-.361.824-1.118.824-.997 0-1.496-.605-1.547-1.261l-1.96.42Zm14.118 2.305h2.183a13.31 13.31 0 0 1-.086-1.497V5.255h-2.287v4.81c0 .958-.584 1.631-1.599 1.631-1.066 0-1.547-.74-1.547-1.665V5.255h-2.287v5.23c0 1.8 1.169 3.263 3.215 3.263.894 0 1.875-.336 2.339-1.11 0 .336.034.723.069.891ZM47 16.725v-4.003c.413.555 1.273 1.01 2.442 1.01 2.39 0 3.99-1.85 3.99-4.357 0-2.455-1.428-4.305-3.904-4.305-1.272 0-2.218.555-2.596 1.194v-1.01h-2.218v11.47H47Zm4.179-7.333c0 1.48-.928 2.338-2.098 2.338-1.169 0-2.115-.875-2.115-2.338s.946-2.32 2.115-2.32c1.17 0 2.098.857 2.098 2.32Zm3.548 1.884c0 1.295 1.1 2.489 2.906 2.489 1.255 0 2.063-.572 2.492-1.228 0 .32.035.774.087.992h2.097a9.052 9.052 0 0 1-.103-1.311v-4.07c0-1.665-.997-3.145-3.68-3.145-2.27 0-3.49 1.43-3.628 2.724l2.03.42c.068-.723.619-1.345 1.616-1.345.963 0 1.427.488 1.427 1.077 0 .285-.155.52-.636.588l-2.08.303c-1.41.202-2.528 1.026-2.528 2.506Zm3.387.824c-.74 0-1.1-.471-1.1-.959 0-.639.463-.958 1.048-1.043l1.909-.285v.37c0 1.463-.894 1.917-1.857 1.917Zm8.616 1.43v-1.01c.447.707 1.34 1.211 2.51 1.211 2.408 0 3.99-1.867 3.99-4.373 0-2.455-1.428-4.322-3.904-4.322-1.255 0-2.183.538-2.562 1.127v-4.81h-2.252V13.53h2.218Zm4.212-4.155c0 1.514-.928 2.355-2.097 2.355-1.152 0-2.115-.858-2.115-2.355 0-1.513.963-2.337 2.115-2.337 1.17 0 2.097.824 2.097 2.337Zm3.583 1.901c0 1.295 1.1 2.489 2.906 2.489 1.255 0 2.064-.572 2.493-1.228 0 .32.035.774.086.992h2.098a9.11 9.11 0 0 1-.103-1.311v-4.07c0-1.665-.997-3.145-3.68-3.145-2.27 0-3.49 1.43-3.628 2.724l2.03.42c.068-.723.618-1.345 1.615-1.345.964 0 1.428.488 1.428 1.077 0 .285-.155.52-.636.588l-2.08.303c-1.41.202-2.529 1.026-2.529 2.506Zm3.388.824c-.74 0-1.1-.471-1.1-.959 0-.639.463-.958 1.048-1.043l1.909-.285v.37c0 1.463-.894 1.917-1.857 1.917Zm5.675-.875c.103.942.98 2.557 3.525 2.557 2.218 0 3.284-1.38 3.284-2.725 0-1.21-.843-2.203-2.51-2.54l-1.204-.252c-.465-.084-.774-.336-.774-.74 0-.47.481-.824 1.083-.824.963 0 1.325.623 1.393 1.11l1.909-.42c-.103-.892-.911-2.388-3.319-2.388-1.823 0-3.163 1.227-3.163 2.707 0 1.16.739 2.12 2.372 2.473l1.118.252c.653.134.911.437.911.807 0 .437-.36.824-1.117.824-.998 0-1.496-.605-1.548-1.261l-1.96.42ZM93.87 8.45c.052-.756.706-1.631 1.892-1.631 1.307 0 1.857.807 1.892 1.631H93.87Zm4.007 2.153c-.275.74-.86 1.261-1.926 1.261-1.135 0-2.08-.79-2.132-1.883h6.053c0-.034.034-.37.034-.69 0-2.657-1.565-4.288-4.178-4.288-2.167 0-4.162 1.715-4.162 4.356 0 2.791 2.046 4.423 4.368 4.423 2.08 0 3.422-1.194 3.852-2.624l-1.909-.555Z"
        />
        <path
          fill="#3ECF8E"
          d="M10.965 18.543c-.492.606-1.49.274-1.502-.5L9.29 6.737h7.783c1.41 0 2.196 1.59 1.32 2.67l-7.428 9.137Z"
        />
        <path
          fill="#3ECF8E"
          fill-opacity=".2"
          d="M10.965 18.543c-.492.606-1.49.274-1.502-.5L9.29 6.737h7.783c1.41 0 2.196 1.59 1.32 2.67l-7.428 9.137Z"
        />
        <path
          fill="#3ECF8E"
          d="M7.8.348c.492-.605 1.49-.274 1.501.5l.076 11.307H1.692c-1.41 0-2.196-1.59-1.32-2.669L7.8.348Z"
        />
      </g>
    </symbol>
    <symbol
      id="linear"
      width="78"
      height="20"
      viewBox="0 0 78 20"
      fill="none"
      xmlns="http://www.w3.org/2000/svg"
      class="text-neutral-900 dark:text-neutral-100"
    >
      <g clip-path="url(#clip0_52_620)">
        <path
          fill-rule="evenodd"
          clip-rule="evenodd"
          d="M2.52117 3.27426C2.41815 3.39038 2.42497 3.56854 2.5332 3.67956L15.9091 17.3985C16.0174 17.5095 16.1911 17.5165 16.3043 17.4108C18.2656 15.5804 19.4967 12.9413 19.4967 10.0072C19.4967 4.4804 15.1283 0 9.73966 0C6.87899 0 4.30584 1.26267 2.52117 3.27426ZM0.84938 5.87788C0.799951 5.98966 0.824874 6.12072 0.909487 6.2075L13.4444 19.0638C13.529 19.1506 13.6568 19.1762 13.7658 19.1255C14.0554 18.9908 14.3374 18.842 14.611 18.6799C14.7736 18.5836 14.7985 18.356 14.6657 18.2198L1.73236 4.95484C1.59957 4.81864 1.37767 4.8442 1.28378 5.011C1.1258 5.29164 0.980724 5.58088 0.84938 5.87788ZM0.0889264 9.5592C0.0302355 9.499 -0.000992005 9.41604 0.00453323 9.3311C0.0304102 8.93328 0.078953 8.54184 0.148849 8.1581C0.190759 7.928 0.464891 7.84816 0.626269 8.01366L11.6834 19.3543C11.8448 19.5198 11.7669 19.801 11.5426 19.844C11.1684 19.9157 10.7868 19.9654 10.3989 19.992C10.3161 19.9976 10.2352 19.9656 10.1765 19.9054L0.0889264 9.5592ZM0.767474 12.3518C0.566019 12.1452 0.240919 12.3232 0.314698 12.6054C1.21358 16.0441 3.85376 18.7519 7.20641 19.6739C7.4816 19.7495 7.65518 19.4161 7.45373 19.2095L0.767474 12.3518ZM39.3129 5.507C40.0123 5.507 40.5792 4.9234 40.5792 4.2035C40.5792 3.4836 40.0123 2.9 39.3129 2.9C38.6136 2.9 38.0467 3.4836 38.0467 4.2035C38.0467 4.9234 38.6136 5.507 39.3129 5.507ZM28.4668 16.8749V2.90078H30.7171V14.8304H36.7845V16.8749H28.4668ZM44.4833 11.1727V16.8749H42.3059V6.9711H44.456V8.66862L44.4833 8.64988C44.7019 8.11842 45.0543 7.6745 45.5402 7.3181C46.0259 6.95546 46.6455 6.77414 47.3987 6.77414C48.0668 6.77414 48.674 6.92734 49.2208 7.2337C49.7674 7.53382 50.2046 7.9746 50.5326 8.55608C50.8606 9.13756 51.0246 9.85034 51.0246 10.6944V16.8749H48.8472V11.0039C48.8472 10.2536 48.6528 9.68464 48.2641 9.297C47.8816 8.9031 47.3683 8.70614 46.7244 8.70614C46.3114 8.70614 45.9349 8.79368 45.5948 8.96874C45.2547 9.14382 44.9844 9.41266 44.784 9.7753C44.5835 10.1379 44.4833 10.6037 44.4833 11.1727ZM64.1988 16.7061C64.6968 16.9249 65.2678 17.0344 65.9115 17.0344C66.4399 17.0344 66.8923 16.9656 67.2689 16.828C67.6456 16.6842 67.9553 16.4935 68.1982 16.2559C68.4472 16.0183 68.6446 15.7589 68.7904 15.4775H68.8269V16.8749H70.9132V10.0567C70.9132 9.57522 70.8219 9.13444 70.6398 8.73428C70.4577 8.33412 70.1935 7.98712 69.8471 7.69326C69.5071 7.39938 69.0941 7.1743 68.6081 7.018C68.1224 6.85542 67.5756 6.77414 66.9684 6.77414C66.1363 6.77414 65.4165 6.92108 64.8091 7.21494C64.2077 7.50256 63.7372 7.8902 63.3969 8.3779C63.0568 8.86558 62.8716 9.4158 62.8412 10.0285H64.9458C64.97 9.74092 65.0673 9.48456 65.2373 9.25948C65.4074 9.0344 65.6383 8.85932 65.9298 8.73428C66.2213 8.60298 66.5583 8.53732 66.9411 8.53732C67.3236 8.53732 67.6485 8.60298 67.9159 8.73428C68.1891 8.86558 68.3987 9.04378 68.5443 9.26886C68.6902 9.49394 68.7631 9.75654 68.7631 10.0567V10.1317C68.7631 10.3568 68.6871 10.5225 68.5354 10.6288C68.3895 10.735 68.1405 10.8132 67.7883 10.8632C67.442 10.9132 66.9684 10.9726 66.367 11.0414C65.875 11.0977 65.4013 11.1821 64.9458 11.2946C64.4903 11.4072 64.0833 11.5729 63.7249 11.7917C63.3727 12.0105 63.0933 12.3013 62.8868 12.6639C62.6803 13.0266 62.5772 13.4924 62.5772 14.0613C62.5772 14.7178 62.7228 15.268 63.0143 15.712C63.3059 16.1496 63.7007 16.481 64.1988 16.7061ZM67.7246 15.0461C67.3722 15.2399 66.9379 15.3368 66.4218 15.3368C65.8994 15.3368 65.4832 15.2243 65.1736 14.9992C64.8637 14.7679 64.7089 14.4521 64.7089 14.052C64.7089 13.7393 64.7939 13.4861 64.964 13.2923C65.1402 13.0985 65.3709 12.9453 65.6564 12.8327C65.9419 12.7202 66.2515 12.642 66.5856 12.5983C66.8285 12.5608 67.0655 12.5232 67.2963 12.4857C67.527 12.442 67.7427 12.4013 67.9432 12.3638C68.1436 12.32 68.3137 12.2763 68.4533 12.2325C68.5991 12.1887 68.7054 12.1418 68.7721 12.0918V13.1985C68.7721 13.5861 68.6842 13.9425 68.5079 14.2677C68.3378 14.5865 68.0767 14.846 67.7246 15.0461ZM72.8129 16.8749V6.9711H74.9082V8.60298H74.9357C75.1117 8.04026 75.3881 7.61198 75.7646 7.3181C76.1472 7.018 76.6484 6.86794 77.2679 6.86794C77.4198 6.86794 77.5565 6.87418 77.6778 6.8867C77.8055 6.89294 77.9118 6.8992 77.9968 6.90544V8.92184C77.9178 8.90934 77.778 8.89372 77.5777 8.87496C77.3773 8.8562 77.1647 8.84682 76.9399 8.84682C76.5815 8.84682 76.2537 8.93122 75.9559 9.10004C75.6583 9.26886 75.4214 9.52834 75.2453 9.87846C75.0753 10.2224 74.9903 10.6569 74.9903 11.1821V16.8749H72.8129ZM38.2197 16.8749V6.9711H40.3971V16.8749H38.2197ZM54.6461 16.4341C55.3446 16.878 56.1737 17.1 57.1333 17.1C57.8743 17.1 58.5485 16.9624 59.1559 16.6873C59.7693 16.406 60.2795 16.0215 60.6864 15.5338C61.0934 15.0398 61.3576 14.4709 61.4791 13.8269H59.4293C59.338 14.1207 59.1892 14.3802 58.9827 14.6053C58.7824 14.8241 58.5303 14.9961 58.2267 15.1211C57.9229 15.2462 57.5707 15.3087 57.1698 15.3087C56.6293 15.3087 56.1646 15.1836 55.7759 14.9335C55.3934 14.6834 55.1018 14.3364 54.9014 13.8925C54.7194 13.4839 54.62 13.0212 54.6032 12.5045H61.6066V11.9042C61.6066 11.1415 61.4972 10.4474 61.2786 9.8222C61.0601 9.1907 60.7502 8.64674 60.3493 8.19032C59.9485 7.72764 59.4657 7.37126 58.9008 7.12116C58.3419 6.87106 57.7195 6.74602 57.0331 6.74602C56.1404 6.74602 55.3508 6.96798 54.6644 7.4119C53.978 7.85582 53.4406 8.46856 53.0518 9.2501C52.6632 10.0317 52.4687 10.9257 52.4687 11.9324C52.4687 12.9328 52.6571 13.8237 53.0337 14.6053C53.4102 15.3806 53.9478 15.9902 54.6461 16.4341ZM59.2288 9.87846C59.0283 9.4533 58.7429 9.12506 58.3724 8.89372C58.0019 8.66238 57.5647 8.5467 57.0604 8.5467C56.5624 8.5467 56.1281 8.66238 55.7576 8.89372C55.3933 9.12506 55.1079 9.4533 54.9014 9.87846C54.7539 10.1864 54.6607 10.5365 54.6217 10.9289H59.5082C59.4692 10.5365 59.376 10.1864 59.2288 9.87846Z"
          fill="currentColor"
        />
      </g>
      <defs>
        <clipPath id="clip0_52_620">
          <rect width="78" height="20" fill="white" />
        </clipPath>
      </defs>
    </symbol>
    <symbol
      id="react"
      width="15"
      height="16"
      viewBox="0 0 14 14"
      fill="none"
      xmlns="http://www.w3.org/2000/svg"
    >
      <path
        d="M12.3029 5.50126C12.3029 4.68299 11.2822 3.90753 9.71741 3.42664C10.0785 1.82536 9.91803 0.551385 9.21085 0.143511C9.04785 0.047837 8.85726 0.0025177 8.64912 0.0025177V0.563973C8.76447 0.563973 8.85726 0.586633 8.935 0.629435C9.27605 0.825818 9.42401 1.57359 9.30865 2.53536C9.28107 2.77203 9.23593 3.02129 9.18076 3.27558C8.68924 3.15473 8.15259 3.06157 7.58836 3.00114C7.24981 2.53536 6.89873 2.11238 6.54515 1.74227C7.36266 0.9794 8.13002 0.561456 8.65163 0.561456V0C7.96201 0 7.05923 0.493477 6.14642 1.34951C5.23361 0.498512 4.33083 0.010071 3.64121 0.010071V0.571527C4.16031 0.571527 4.93017 0.986953 5.74769 1.74479C5.39661 2.1149 5.04553 2.53536 4.712 3.00114C4.14526 3.06157 3.60861 3.15473 3.11709 3.2781C3.05942 3.02632 3.01679 2.7821 2.98669 2.54795C2.86883 1.58618 3.01428 0.838407 3.35282 0.639506C3.42805 0.594186 3.52585 0.574044 3.64121 0.574044V0.0125887C3.43056 0.0125887 3.23997 0.0579079 3.07446 0.153582C2.36979 0.561456 2.21181 1.83291 2.57543 3.42916C1.01563 3.91257 0 4.68551 0 5.50126C0 6.31952 1.02064 7.09499 2.58546 7.57587C2.22435 9.17716 2.38484 10.4511 3.09202 10.859C3.25502 10.9547 3.44561 11 3.65625 11C4.34588 11 5.24865 10.5065 6.16146 9.65049C7.07427 10.5015 7.97705 10.9899 8.66667 10.9899C8.87732 10.9899 9.06791 10.9446 9.23342 10.8489C9.93809 10.4411 10.0961 9.1696 9.73245 7.57336C11.2872 7.09247 12.3029 6.31701 12.3029 5.50126ZM9.03782 3.82193C8.94503 4.14672 8.82968 4.48157 8.69927 4.81643C8.59646 4.61501 8.48863 4.4136 8.37076 4.21218C8.25541 4.01076 8.13253 3.81437 8.00965 3.62303C8.36575 3.6759 8.70931 3.74136 9.03782 3.82193ZM7.88928 6.50332C7.69368 6.84321 7.49306 7.16548 7.28492 7.46509C6.91127 7.49782 6.53261 7.51545 6.15143 7.51545C5.77277 7.51545 5.3941 7.49783 5.02296 7.46761C4.81482 7.168 4.61169 6.84825 4.41609 6.51087C4.22551 6.18105 4.05247 5.84619 3.89449 5.50881C4.04997 5.17143 4.22551 4.83406 4.41358 4.50423C4.60919 4.16434 4.8098 3.84207 5.01794 3.54246C5.39159 3.50973 5.77026 3.4921 6.15143 3.4921C6.5301 3.4921 6.90876 3.50973 7.27991 3.53994C7.48805 3.83955 7.69117 4.1593 7.88677 4.49668C8.07736 4.8265 8.25039 5.16136 8.40838 5.49874C8.25039 5.83612 8.07736 6.17349 7.88928 6.50332ZM8.69927 6.17601C8.83469 6.51339 8.95005 6.85077 9.04534 7.17807C8.71683 7.25864 8.37076 7.32662 8.01216 7.37949C8.13504 7.18563 8.25792 6.98672 8.37327 6.78279C8.48863 6.58137 8.59646 6.37743 8.69927 6.17601ZM6.15645 8.86244C5.92323 8.62074 5.69001 8.35134 5.4593 8.05676C5.685 8.06683 5.91571 8.07439 6.14893 8.07439C6.38465 8.07439 6.61787 8.06935 6.84607 8.05676C6.62038 8.35134 6.38716 8.62074 6.15645 8.86244ZM4.29071 7.37949C3.93461 7.32662 3.59105 7.26116 3.26254 7.18059C3.35533 6.8558 3.47068 6.52094 3.60108 6.18608C3.7039 6.3875 3.81173 6.58892 3.92959 6.79034C4.04746 6.99176 4.16783 7.18814 4.29071 7.37949ZM6.14391 2.14008C6.37713 2.38178 6.61035 2.65118 6.84106 2.94575C6.61536 2.93568 6.38465 2.92813 6.15143 2.92813C5.91571 2.92813 5.68249 2.93317 5.45429 2.94575C5.67998 2.65118 5.9132 2.38178 6.14391 2.14008ZM4.2882 3.62303C4.16532 3.81689 4.04244 4.01579 3.92709 4.21973C3.81173 4.42115 3.7039 4.62257 3.60108 4.82399C3.46567 4.48661 3.35031 4.14923 3.25502 3.82193C3.58353 3.74388 3.9296 3.6759 4.2882 3.62303ZM2.01871 6.77523C1.13098 6.39506 0.556713 5.89654 0.556713 5.50126C0.556713 5.10597 1.13098 4.60494 2.01871 4.22728C2.23438 4.13413 2.4701 4.05104 2.71335 3.97299C2.85629 4.46647 3.04437 4.98009 3.27759 5.50629C3.04688 6.02998 2.86131 6.54108 2.72088 7.03204C2.47261 6.95399 2.23689 6.86839 2.01871 6.77523ZM3.36787 10.3731C3.02682 10.1767 2.87886 9.42893 2.99422 8.46715C3.0218 8.23049 3.06694 7.98123 3.12211 7.72694C3.61362 7.84779 4.15027 7.94095 4.71451 8.00137C5.05305 8.46715 5.40413 8.89013 5.75772 9.26024C4.94021 10.0231 4.17284 10.4411 3.65124 10.4411C3.53839 10.4385 3.4431 10.4159 3.36787 10.3731ZM9.31617 8.45457C9.43404 9.41634 9.28859 10.1641 8.95005 10.363C8.87481 10.4083 8.77701 10.4285 8.66166 10.4285C8.14256 10.4285 7.37269 10.013 6.55518 9.25521C6.90626 8.8851 7.25734 8.46464 7.59086 7.99886C8.15761 7.93843 8.69426 7.84527 9.18577 7.7219C9.24345 7.9762 9.28859 8.22042 9.31617 8.45457ZM10.2816 6.77523C10.066 6.86839 9.83026 6.95148 9.58701 7.02953C9.44407 6.53605 9.25599 6.02243 9.02277 5.49622C9.25348 4.97253 9.43905 4.46143 9.57948 3.97047C9.82775 4.04852 10.0635 4.13413 10.2842 4.22728C11.1719 4.60746 11.7462 5.10597 11.7462 5.50126C11.7436 5.89654 11.1694 6.39757 10.2816 6.77523Z"
        fill="#61DAFB"
      />
      <path
        d="M6.13697 6.65389C6.77191 6.65389 7.28663 6.13725 7.28663 5.49994C7.28663 4.86263 6.77191 4.34599 6.13697 4.34599C5.50203 4.34599 4.9873 4.86263 4.9873 5.49994C4.9873 6.13725 5.50203 6.65389 6.13697 6.65389Z"
        fill="#61DAFB"
      />
    </symbol>
    <symbol
      id="vercel"
      width="13"
      height="11"
      viewBox="0 0 13 11"
      fill="none"
      xmlns="http://www.w3.org/2000/svg"
    >
      <path
        fillRule="evenodd"
        clipRule="evenodd"
        d="M6.5 0L13 11H0L6.5 0Z"
        fill="currentColor"
      />
    </symbol>
    <symbol
      id="youtube"
      width="15"
      height="11"
      viewBox="0 0 15 11"
      fill="none"
      xmlns="http://www.w3.org/2000/svg"
    >
      <path
        d="M4.23047 7.01409V7.01437C4.23422 7.15313 4.23547 7.29269 4.25879 7.43058C4.28362 7.57647 4.3191 7.71873 4.38678 7.85115C4.47829 8.03036 4.60358 8.18176 4.76263 8.30534C4.87653 8.3941 5.00097 8.46458 5.13871 8.50903C5.33954 8.57377 5.54674 8.59857 5.75698 8.59979C5.88814 8.60062 6.01923 8.60389 6.15045 8.60334C7.10333 8.59934 8.05624 8.61022 9.00917 8.59747C9.13561 8.59577 9.25999 8.58034 9.3841 8.55766C9.62196 8.51416 9.83217 8.41265 10.012 8.25241C10.2216 8.06562 10.3631 7.83697 10.4269 7.56105C10.4687 7.38068 10.4791 7.19771 10.4809 7.01407V6.97744C10.4809 6.96324 10.4755 3.85737 10.475 3.81632C10.4736 3.70356 10.4653 3.59162 10.4441 3.48066C10.4184 3.34545 10.382 3.21369 10.3173 3.09137C10.2488 2.96211 10.1631 2.84593 10.057 2.74437C9.89467 2.58878 9.70728 2.47877 9.48904 2.42056C9.29202 2.36806 9.09102 2.35635 8.88851 2.35655C8.88786 2.35564 8.88747 2.35457 8.88739 2.35345H5.82286C5.82286 2.3545 5.82286 2.35553 5.82269 2.35655C5.70776 2.35866 5.59268 2.35778 5.47836 2.37196C5.35313 2.38751 5.22907 2.41094 5.11054 2.45469C4.92382 2.5237 4.76158 2.63118 4.62301 2.77472C4.466 2.93723 4.35528 3.1253 4.29663 3.34425C4.24421 3.53959 4.2328 3.73881 4.23252 3.93945"
        fill="white"
      />
      <path
        d="M7.75735 9.75221L5.18249 9.7052C4.34881 9.68881 3.51306 9.72152 2.69572 9.55178C1.45237 9.29819 1.36428 8.05475 1.27211 7.01174C1.14511 5.5454 1.19428 4.05245 1.43394 2.59835C1.56925 1.78245 2.10171 1.29559 2.92514 1.24262C5.70483 1.05035 8.50301 1.07313 11.2765 1.16283C11.5695 1.17106 11.8644 1.216 12.1532 1.26716C13.579 1.51668 13.6137 2.92577 13.7062 4.11196C13.7983 5.31039 13.7594 6.51497 13.5833 7.70524C13.4419 8.69075 13.1715 9.5172 12.0303 9.59698C10.6005 9.7013 9.20347 9.78529 7.76961 9.75855C7.76967 9.75221 7.76144 9.75221 7.75735 9.75221ZM6.24358 7.25718C7.32108 6.63951 8.37802 6.03213 9.44936 5.4186C8.36985 4.80093 7.31492 4.19356 6.24358 3.58003V7.25718Z"
        fill="#FF0000"
      />
    </symbol>
    <symbol id="bun" xmlns="http://www.w3.org/2000/svg" viewBox="0 0 80 70">
      <path d="M71.09 20.74c-.16-.17-.33-.34-.5-.5s-.33-.34-.5-.5-.33-.34-.5-.5-.33-.34-.5-.5-.33-.34-.5-.5-.33-.34-.5-.5-.33-.34-.5-.5A26.46 26.46 0 0 1 75.5 35.7c0 16.57-16.82 30.05-37.5 30.05-11.58 0-21.94-4.23-28.83-10.86l.5.5.5.5.5.5.5.5.5.5.5.5.5.5C19.55 65.3 30.14 69.75 42 69.75c20.68 0 37.5-13.48 37.5-30 0-7.06-3.04-13.75-8.41-19.01Z" />
      <path
        d="M73 35.7c0 15.21-15.67 27.54-35 27.54S3 50.91 3 35.7C3 26.27 9 17.94 18.22 13S33.18 3 38 3s8.94 4.13 19.78 10C67 17.94 73 26.27 73 35.7Z"
        style="fill:#fbf0df"
      />
      <path
        d="M73 35.7a21.67 21.67 0 0 0-.8-5.78c-2.73 33.3-43.35 34.9-59.32 24.94A40 40 0 0 0 38 63.24c19.3 0 35-12.35 35-27.54Z"
        data-name="Bottom Shadow"
        style="fill:#f6dece"
      />
      <path
        d="M24.53 11.17C29 8.49 34.94 3.46 40.78 3.45A9.29 9.29 0 0 0 38 3c-2.42 0-5 1.25-8.25 3.13-1.13.66-2.3 1.39-3.54 2.15-2.33 1.44-5 3.07-8 4.7C8.69 18.13 3 26.62 3 35.7v1.19c6.06-21.41 17.07-23.04 21.53-25.72Z"
        data-name="Light Shine"
        style="fill:#fffefc"
      />
      <path
        d="M35.12 5.53A16.41 16.41 0 0 1 29.49 18c-.28.25-.06.73.3.59 3.37-1.31 7.92-5.23 6-13.14-.08-.45-.67-.33-.67.08Zm2.27 0A16.24 16.24 0 0 1 39 19c-.12.35.31.65.55.36 2.19-2.8 4.1-8.36-1.62-14.36-.29-.26-.74.14-.54.49Zm2.76-.17A16.42 16.42 0 0 1 47 17.12a.33.33 0 0 0 .65.11c.92-3.49.4-9.44-7.17-12.53-.4-.16-.66.38-.33.62Zm-18.46 10.4a16.94 16.94 0 0 0 10.47-9c.18-.36.75-.22.66.18-1.73 8-7.52 9.67-11.12 9.45-.38.01-.37-.52-.01-.63Z"
        style="fill:#ccbea7;fill-rule:evenodd"
      />
      <path d="M38 65.75C17.32 65.75.5 52.27.5 35.7c0-10 6.18-19.33 16.53-24.92 3-1.6 5.57-3.21 7.86-4.62 1.26-.78 2.45-1.51 3.6-2.19C32 1.89 35 .5 38 .5s5.62 1.2 8.9 3.14c1 .57 2 1.19 3.07 1.87 2.49 1.54 5.3 3.28 9 5.27C69.32 16.37 75.5 25.69 75.5 35.7c0 16.57-16.82 30.05-37.5 30.05ZM38 3c-2.42 0-5 1.25-8.25 3.13-1.13.66-2.3 1.39-3.54 2.15-2.33 1.44-5 3.07-8 4.7C8.69 18.13 3 26.62 3 35.7c0 15.19 15.7 27.55 35 27.55S73 50.89 73 35.7c0-9.08-5.69-17.57-15.22-22.7-3.78-2-6.73-3.88-9.12-5.36-1.09-.67-2.09-1.29-3-1.84C42.63 4 40.42 3 38 3Z" />
      <path
        d="M45.05 43a8.93 8.93 0 0 1-2.92 4.71 6.81 6.81 0 0 1-4 1.88A6.84 6.84 0 0 1 34 47.71 8.93 8.93 0 0 1 31.12 43a.72.72 0 0 1 .8-.81h12.34a.72.72 0 0 1 .79.81Z"
        data-name="Background"
        style="fill:#b71422"
      />
      <path
        d="M34 47.79a6.91 6.91 0 0 0 4.12 1.9 6.91 6.91 0 0 0 4.11-1.9 10.63 10.63 0 0 0 1-1.07 6.83 6.83 0 0 0-4.9-2.31 6.15 6.15 0 0 0-5 2.78c.23.21.43.41.67.6Z"
        data-name="Background"
        style="fill:#ff6164"
      />
      <path
        d="M34.16 47a5.36 5.36 0 0 1 4.19-2.08 6 6 0 0 1 4 1.69c.23-.25.45-.51.66-.77a7 7 0 0 0-4.71-1.93 6.36 6.36 0 0 0-4.89 2.36 9.53 9.53 0 0 0 .75.73Z"
        data-name="Outline"
      />
      <path
        d="M38.09 50.19a7.42 7.42 0 0 1-4.45-2 9.52 9.52 0 0 1-3.11-5.05 1.2 1.2 0 0 1 .26-1 1.41 1.41 0 0 1 1.13-.51h12.34a1.44 1.44 0 0 1 1.13.51 1.19 1.19 0 0 1 .25 1 9.52 9.52 0 0 1-3.11 5.05 7.42 7.42 0 0 1-4.44 2Zm-6.17-7.4c-.16 0-.2.07-.21.09a8.29 8.29 0 0 0 2.73 4.37A6.23 6.23 0 0 0 38.09 49a6.28 6.28 0 0 0 3.65-1.73 8.3 8.3 0 0 0 2.72-4.37.21.21 0 0 0-.2-.09Z"
        data-name="Outline"
      />
      <ellipse
        cx="53.22"
        cy="40.18"
        data-name="Right Blush"
        rx="5.85"
        ry="3.44"
        style="fill:#febbd0"
      />
      <ellipse
        cx="22.95"
        cy="40.18"
        data-name="Left Bluch"
        rx="5.85"
        ry="3.44"
        style="fill:#febbd0"
      />
      <path
        d="M25.7 38.8a5.51 5.51 0 1 0-5.5-5.51 5.51 5.51 0 0 0 5.5 5.51Zm24.77 0A5.51 5.51 0 1 0 45 33.29a5.5 5.5 0 0 0 5.47 5.51Z"
        style="fill-rule:evenodd"
      />
      <path
        d="M24 33.64a2.07 2.07 0 1 0-2.06-2.07A2.07 2.07 0 0 0 24 33.64Zm24.77 0a2.07 2.07 0 1 0-2.06-2.07 2.07 2.07 0 0 0 2.04 2.07Z"
        style="fill:#fff;fill-rule:evenodd"
      />
    </symbol>
  </defs>
</svg>