<svg width="213" height="241" viewBox="0 0 213 241" fill="none" xmlns="http://www.w3.org/2000/svg">
<path d="M164.941 88.821L119.606 161.694C113.522 171.463 99.4776 171.463 93.3936 161.694L48.0594 88.821C42.7852 80.3659 40 70.5778 40 60.5709V52.8319C40 45.7495 45.6692 40 52.6422 40H160.358C167.351 40 173 45.7495 173 52.8319V60.5709C173 70.5778 170.215 80.3659 164.941 88.821Z" fill="#7B78FF"/>
<path d="M48.0594 151.906L93.3936 79.0522C99.4776 69.284 113.522 69.284 119.606 79.0522L164.941 151.906C170.215 160.361 173 170.169 173 180.176V187.915C173 194.997 167.331 200.747 160.358 200.747H52.6422C45.6495 200.747 40 194.997 40 187.915V180.176C40 170.169 42.7852 160.381 48.0594 151.906Z" fill="#9FD2EB"/>
<path d="M119.607 79.0522C113.523 69.284 99.4779 69.284 93.3938 79.0522L67.6946 120.373L93.4136 161.694C99.4976 171.462 113.542 171.462 119.626 161.694L145.326 120.373L119.607 79.0522Z" fill="#11429F"/>
</svg>
