<?xml version="1.0" standalone="no"?>
<!DOCTYPE svg PUBLIC "-//W3C//DTD SVG 20010904//EN"
 "http://www.w3.org/TR/2001/REC-SVG-20010904/DTD/svg10.dtd">
<svg version="1.0" xmlns="http://www.w3.org/2000/svg"
 width="700.000000pt" height="700.000000pt" viewBox="0 0 700.000000 700.000000"
 preserveAspectRatio="xMidYMid meet">
<metadata>
Created by potrace 1.14, written by Peter Selinger 2001-2017
</metadata>
<g transform="translate(0.000000,700.000000) scale(0.100000,-0.100000)"
fill="#000000" stroke="none">
<path d="M2554 6406 c-55 -13 -130 -62 -162 -105 -11 -15 -29 -49 -40 -77 -11
-27 -197 -580 -412 -1229 -216 -649 -395 -1185 -397 -1192 -4 -9 -127 -13
-521 -15 l-517 -3 -47 -23 c-106 -52 -161 -141 -162 -262 0 -63 4 -83 27 -125
33 -62 43 -74 88 -108 78 -59 66 -58 754 -58 379 1 643 4 663 10 46 14 113 54
139 85 31 36 82 143 88 186 1 11 570 1709 571 1707 1 -1 331 -992 734 -2202
403 -1210 742 -2220 754 -2244 67 -146 246 -208 391 -135 113 58 102 31 400
924 145 437 269 809 275 825 6 17 69 208 142 425 72 217 135 400 140 407 8 9
128 12 507 12 534 1 541 1 614 53 189 134 153 427 -62 508 -52 20 -72 20 -705
18 l-651 -3 -45 -24 c-55 -29 -102 -75 -128 -127 -10 -21 -154 -443 -318 -937
-164 -494 -300 -894 -301 -890 -2 4 -336 1005 -742 2225 -482 1443 -749 2230
-766 2257 -66 99 -190 146 -311 117z"/>
</g>
</svg>
