<?xml version="1.0" standalone="no"?>
<!DOCTYPE svg PUBLIC "-//W3C//DTD SVG 20010904//EN" "http://www.w3.org/TR/2001/REC-SVG-20010904/DTD/svg10.dtd">
<svg version="1.0" xmlns="http://www.w3.org/2000/svg" width="300.000000pt" height="300.000000pt"
    viewBox="0 0 300.000000 300.000000" preserveAspectRatio="xMidYMid meet">
    <metadata>
        Created by potrace 1.14, written by Peter Selinger 2001-2017
    </metadata>
    <g transform="translate(0.000000,300.000000) scale(0.100000,-0.100000)" fill="#000000" stroke="none">
        <path d="M1296 2985 c-333 -47 -632 -200 -868 -443 -210 -217 -350 -487 -405
-782 -24 -130 -24 -390 0 -520 54 -295 195 -565 405 -782 174 -179 379 -307
610 -382 169 -55 271 -70 462 -70 191 0 293 15 462 70 231 75 436 203 610 382
210 217 351 487 405 782 24 130 24 390 0 520 -22 119 -83 303 -135 407 -103
203 -286 418 -465 547 -177 126 -407 224 -614 261 -124 23 -346 27 -467 10z
m-271 -900 c111 -23 208 -77 295 -165 84 -83 129 -160 155 -260 10 -36 20 -72
22 -80 3 -8 11 14 19 50 32 154 161 325 301 398 124 65 177 72 550 72 l333 0
0 -90 0 -90 -329 0 c-298 0 -335 -2 -392 -19 -152 -48 -265 -177 -292 -334
-36 -214 108 -427 324 -476 25 -6 186 -11 367 -11 l322 0 0 -90 0 -90 -333 0
c-373 0 -426 7 -550 72 -142 74 -270 246 -301 403 -13 67 -14 58 -15 -202 l-1
-273 -90 0 -90 0 0 329 c0 295 -2 336 -19 390 -48 156 -175 266 -336 294 -212
36 -425 -109 -474 -324 -6 -25 -11 -186 -11 -366 l0 -323 -90 0 -90 0 0 333
c0 300 2 342 20 411 29 113 73 190 160 276 148 148 343 207 545 165z" />
    </g>
</svg>