<?xml version="1.0" standalone="no"?>
<!DOCTYPE svg PUBLIC "-//W3C//DTD SVG 20010904//EN"
 "http://www.w3.org/TR/2001/REC-SVG-20010904/DTD/svg10.dtd">
<svg version="1.0" xmlns="http://www.w3.org/2000/svg"
 width="1084.000000pt" height="1084.000000pt" viewBox="0 0 1084.000000 1084.000000"
 preserveAspectRatio="xMidYMid meet">
<metadata>
Created by potrace 1.11, written by Peter Selinger 2001-2013
</metadata>
<g transform="translate(0.000000,1084.000000) scale(0.100000,-0.100000)"
fill="#000000" stroke="none">
<path d="M0 5420 l0 -4340 5420 0 5420 0 0 4340 0 4340 -5420 0 -5420 0 0
-4340z m5936 2877 c-34 -338 -92 -1329 -131 -2267 -8 -201 -27 -610 -41 -910
-14 -300 -35 -796 -48 -1102 -12 -307 -25 -560 -29 -564 -9 -9 -60 -18 -405
-69 -169 -25 -405 -62 -525 -81 -120 -20 -221 -34 -223 -31 -3 3 20 227 50
498 31 272 58 531 62 577 l7 82 -300 0 -299 0 -31 -112 c-132 -476 -244 -872
-247 -875 -7 -8 -1171 -149 -1174 -142 -3 8 25 106 174 594 249 818 431 1424
655 2180 132 446 289 974 349 1175 60 201 143 482 184 624 41 143 79 262 83
266 4 4 109 15 233 24 514 39 1039 96 1388 152 125 19 229 38 231 40 2 2 13 4
24 4 18 0 19 -5 13 -63z m3024 19 c0 -14 -161 -724 -181 -798 l-10 -38 -539 0
c-504 0 -539 -1 -544 -17 -3 -10 -28 -151 -56 -313 -28 -162 -74 -421 -101
-575 -27 -153 -49 -289 -49 -301 l0 -22 491 5 491 6 -6 -29 c-8 -41 -106 -692
-106 -706 0 -8 -99 -9 -377 -2 -208 5 -432 9 -498 9 l-120 0 -117 -750 c-186
-1198 -197 -1267 -202 -1272 -3 -3 -87 -20 -188 -39 -202 -37 -613 -121 -897
-183 -101 -23 -186 -39 -188 -37 -3 2 27 132 66 287 157 635 247 1101 481
2489 160 956 193 1159 311 1950 18 118 35 218 38 222 3 4 238 19 521 33 283
15 785 42 1115 60 330 18 615 33 633 34 22 1 32 -4 32 -13z"/>
<path d="M4806 7442 c-2 -4 -70 -268 -151 -587 -80 -319 -211 -838 -291 -1154
-80 -315 -143 -575 -141 -578 5 -5 465 25 485 32 7 3 12 22 12 47 0 24 4 79
10 123 5 44 26 278 45 520 20 242 49 580 65 750 16 171 36 405 45 520 8 116
18 238 21 273 l6 62 -50 0 c-28 0 -53 -3 -56 -8z"/>
</g>
</svg>
