<svg xmlns="http://www.w3.org/2000/svg" width="682.667" height="682.667" preserveAspectRatio="xMidYMid meet" version="1.0" viewBox="0 0 512 512"><metadata>Created by potrace 1.11, written by Peter Selinger 2001-2013</metadata><g fill="#000" stroke="none"><path d="M1370 3580 c0 -6 -7 -56 -15 -113 -20 -137 -22 -149 -35 -247 -6 -47 -27 -195 -46 -330 -19 -135 -37 -263 -39 -285 -3 -22 -8 -51 -10 -65 -2 -14 -7 -43 -10 -65 -2 -22 -12 -89 -20 -150 -9 -60 -18 -126 -20 -145 -10 -76 -14 -104 -49 -355 -20 -143 -38 -268 -40 -277 -4 -17 30 -18 593 -18 l598 0 42 163 c24 89 45 170 47 179 5 15 -25 17 -392 17 -218 0 -398 2 -400 4 -3 2 4 65 15 138 11 74 57 393 101 709 92 651 85 601 105 739 8 58 15 106 15 108 0 2 -99 3 -220 3 -141 0 -220 -4 -220 -10z" transform="translate(0.000000,512.000000) scale(0.100000,-0.100000)"/><path d="M2826 3313 c-21 -153 -40 -287 -42 -298 -11 -72 -17 -117 -35 -250 -11 -82 -24 -175 -29 -205 -5 -30 -12 -77 -15 -105 -3 -27 -8 -57 -10 -65 -2 -8 -6 -42 -10 -75 -3 -33 -10 -85 -15 -115 -5 -30 -12 -73 -14 -95 -3 -22 -20 -139 -36 -260 -17 -121 -33 -241 -36 -268 l-5 -47 218 2 218 3 6 45 c4 25 9 68 12 95 7 52 47 343 76 545 9 63 19 114 24 112 4 -1 55 -2 115 -2 l107 0 160 -400 160 -400 238 0 c130 0 237 2 237 4 0 6 -61 147 -98 226 -17 36 -51 112 -77 169 -25 57 -55 122 -65 145 -11 22 -48 106 -84 186 l-65 145 82 40 c204 100 316 223 371 405 22 72 31 229 17 305 -27 149 -131 281 -274 348 -154 73 -270 87 -737 87 l-356 0 -38 -277z m835 -75 c72 -33 106 -78 121 -157 28 -151 -48 -323 -172 -386 -85 -43 -145 -50 -408 -46 l-33 1 6 43 c46 337 65 472 71 521 l7 58 176 -4 c164 -3 180 -5 232 -30z" transform="translate(0.000000,512.000000) scale(0.100000,-0.100000)"/></g></svg>