<?xml version="1.0" encoding="utf-8"?>
<svg viewBox="0 0 300 300" xmlns="http://www.w3.org/2000/svg" xmlns:bx="https://boxy-svg.com">
  <defs>
    <marker id="marker-0" viewBox="0 0 100 100" overflow="visible" orient="auto" refX="50" refY="50" bx:pinned="true"/>
    <linearGradient id="gradient-1" bx:pinned="true">
      <title>viridis</title>
      <stop offset="0" style="stop-color: rgb(253, 231, 37);"/>
      <stop offset="0.5" style="stop-color: rgb(31, 150, 139);"/>
      <stop offset="1" style="stop-color: rgb(68, 13, 84);"/>
    </linearGradient>
    <linearGradient id="color-0" bx:pinned="true">
      <title>v_low</title>
      <stop style="stop-color: rgb(68, 13, 84);"/>
    </linearGradient>
    <linearGradient id="gradient-0" bx:pinned="true">
      <stop offset="0.209" style="stop-color: rgb(255, 0, 0);"/>
    </linearGradient>
    <linearGradient id="color-1" bx:pinned="true">
      <title>v_hi</title>
      <stop style="stop-color: rgb(253, 231, 37);"/>
    </linearGradient>
  </defs>
  <g style="">
    <title>yellow_on_purple</title>
    <circle style="fill: url(#color-0); stroke: url(#color-1); stroke-width: 0px;" cx="150" cy="150" r="150">
      <title>Circle</title>
    </circle>
    <path style="stroke-linejoin: round; stroke-linecap: round; filter: none; stroke-width: 0px; fill: url(#color-1);" d="M 30.006 150.233 C 30.006 138.655 33.131 128.167 38.442 119.307 C 43.76 110.444 51.254 103.217 60.006 98.154 C 68.758 93.087 78.744 90.2 89.063 90.014 C 99.375 89.833 109.997 92.361 120.001 98.149 C 124.645 100.835 128.842 104.091 132.527 107.796 C 136.208 111.507 139.377 115.665 141.97 120.159 C 144.558 124.653 146.565 129.482 147.929 134.534 C 149.292 139.585 150.006 144.849 150.006 150.222 L 149.973 209.923 L 132.095 209.923 L 132.095 208.232 L 132.068 150.237 C 132.068 142.116 129.887 134.773 126.159 128.562 C 122.431 122.345 117.169 117.272 111.036 113.721 C 104.899 110.17 97.909 108.145 90.672 108.017 C 83.441 107.889 76.001 109.656 68.982 113.717 C 65.725 115.6 62.778 117.882 60.199 120.482 C 57.613 123.084 55.396 125.998 53.576 129.148 C 51.762 132.305 50.349 135.68 49.404 139.222 C 48.44 142.759 47.944 146.452 47.944 150.222 L 47.932 209.995 L 30.055 209.995 L 30.053 208.307 Z" bx:origin="0.99998 1.00004">
      <title>N</title>
    </path>
    <path style="stroke-linejoin: round; stroke-linecap: round; filter: none; stroke-width: 0px; fill: url(#color-1);" d="M 150.004 270.235 C 150.004 258.657 153.128 248.169 158.44 239.31 C 163.757 230.446 171.252 223.219 180.003 218.157 C 188.755 213.09 198.741 210.202 209.06 210.017 C 219.374 209.836 229.994 212.363 239.999 218.151 C 244.643 220.837 248.839 224.094 252.524 227.799 C 256.205 231.509 259.375 235.668 261.968 240.162 C 264.556 244.655 266.562 249.484 267.926 254.537 C 269.29 259.588 270.004 264.852 270.004 270.224 L 269.97 329.925 L 252.092 329.925 L 252.092 328.234 L 252.066 270.239 C 252.066 262.118 249.885 254.775 246.156 248.564 C 242.429 242.347 237.167 237.274 231.033 233.723 C 224.896 230.172 217.906 228.147 210.669 228.019 C 203.438 227.891 195.998 229.658 188.98 233.719 C 185.723 235.602 182.776 237.884 180.196 240.484 C 177.61 243.086 175.395 246 173.574 249.15 C 171.759 252.307 170.347 255.683 169.402 259.224 C 168.438 262.761 167.942 266.454 167.941 270.224 L 167.929 329.997 L 150.053 329.997 L 150.05 328.309 Z" transform="matrix(0, -1, 1, 0, -59.996273, 360.004268)" bx:origin="0 -0.000064">
      <title>C</title>
    </path>
  </g>
  <g style="visibility: hidden;">
    <title>purple_on_yellow</title>
    <circle style="stroke: url(#color-0); stroke-width: 0px; fill: url(#color-1);" cx="150" cy="150" r="150">
      <title>Circle</title>
    </circle>
    <path style="stroke-linejoin: round; stroke-linecap: round; filter: none; stroke-width: 0px; fill: url(#color-0);" d="M 30.006 150.233 C 30.006 138.655 33.131 128.167 38.442 119.307 C 43.76 110.444 51.254 103.217 60.006 98.154 C 68.758 93.087 78.744 90.2 89.063 90.014 C 99.375 89.833 109.997 92.361 120.001 98.149 C 124.645 100.835 128.842 104.091 132.527 107.796 C 136.208 111.507 139.377 115.665 141.97 120.159 C 144.558 124.653 146.565 129.482 147.929 134.534 C 149.292 139.585 150.006 144.849 150.006 150.222 L 149.973 209.923 L 132.095 209.923 L 132.095 208.232 L 132.068 150.237 C 132.068 142.116 129.887 134.773 126.159 128.562 C 122.431 122.345 117.169 117.272 111.036 113.721 C 104.899 110.17 97.909 108.145 90.672 108.017 C 83.441 107.889 76.001 109.656 68.982 113.717 C 65.725 115.6 62.778 117.882 60.199 120.482 C 57.613 123.084 55.396 125.998 53.576 129.148 C 51.762 132.305 50.349 135.68 49.404 139.222 C 48.44 142.759 47.944 146.452 47.944 150.222 L 47.932 209.995 L 30.055 209.995 L 30.053 208.307 Z" bx:origin="0.99998 1.00004">
      <title>N</title>
    </path>
    <path style="stroke-linejoin: round; stroke-linecap: round; filter: none; stroke-width: 0px; fill: url(#color-0);" d="M 150.004 270.235 C 150.004 258.657 153.128 248.169 158.44 239.31 C 163.757 230.446 171.252 223.219 180.003 218.157 C 188.755 213.09 198.741 210.202 209.06 210.017 C 219.374 209.836 229.994 212.363 239.999 218.151 C 244.643 220.837 248.839 224.094 252.524 227.799 C 256.205 231.509 259.375 235.668 261.968 240.162 C 264.556 244.655 266.562 249.484 267.926 254.537 C 269.29 259.588 270.004 264.852 270.004 270.224 L 269.97 329.925 L 252.092 329.925 L 252.092 328.234 L 252.066 270.239 C 252.066 262.118 249.885 254.775 246.156 248.564 C 242.429 242.347 237.167 237.274 231.033 233.723 C 224.896 230.172 217.906 228.147 210.669 228.019 C 203.438 227.891 195.998 229.658 188.98 233.719 C 185.723 235.602 182.776 237.884 180.196 240.484 C 177.61 243.086 175.395 246 173.574 249.15 C 171.759 252.307 170.347 255.683 169.402 259.224 C 168.438 262.761 167.942 266.454 167.941 270.224 L 167.929 329.997 L 150.053 329.997 L 150.05 328.309 Z" transform="matrix(0, -1, 1, 0, -59.996273, 360.004268)" bx:origin="0 -0.000064">
      <title>C</title>
    </path>
  </g>
  <g style="visibility: hidden;">
    <title>yellow</title>
    <path d="M 300 150 C 300 232.843 232.843 300 150 300 C 67.157 300 0 232.843 0 150 C 0 67.157 67.157 0 150 0 C 232.843 0 300 67.157 300 150 Z M 30.053 208.307 L 30.055 209.995 L 47.932 209.995 L 47.944 150.222 C 47.944 146.452 48.44 142.759 49.404 139.222 C 50.349 135.68 51.762 132.305 53.576 129.148 C 55.396 125.998 57.613 123.084 60.199 120.482 C 62.778 117.882 65.725 115.6 68.982 113.717 C 76.001 109.656 83.441 107.889 90.672 108.017 C 97.909 108.145 104.899 110.17 111.036 113.721 C 117.169 117.272 122.431 122.345 126.159 128.562 C 129.887 134.773 132.068 142.116 132.068 150.237 L 132.095 208.232 L 132.095 209.923 L 149.973 209.923 L 150.006 150.222 C 150.006 144.849 149.292 139.585 147.929 134.534 C 146.565 129.482 144.558 124.653 141.97 120.159 C 139.377 115.665 136.208 111.507 132.527 107.796 C 128.842 104.091 124.645 100.835 120.001 98.149 C 109.997 92.361 99.375 89.833 89.063 90.014 C 78.744 90.2 68.758 93.087 60.006 98.154 C 51.254 103.217 43.76 110.444 38.442 119.307 C 33.131 128.167 30.006 138.655 30.006 150.233 Z M 268.313 209.954 L 270.001 209.951 L 270.001 192.075 L 210.228 192.063 C 206.458 192.062 202.765 191.566 199.228 190.602 C 195.687 189.657 192.311 188.245 189.154 186.43 C 186.004 184.609 183.09 182.394 180.488 179.808 C 177.888 177.228 175.606 174.281 173.723 171.024 C 169.662 164.006 167.895 156.566 168.023 149.335 C 168.151 142.098 170.176 135.108 173.727 128.971 C 177.278 122.837 182.351 117.575 188.568 113.848 C 194.779 110.119 202.122 107.938 210.243 107.938 L 268.238 107.912 L 269.929 107.912 L 269.929 90.034 L 210.228 90 C 204.856 90 199.592 90.714 194.541 92.078 C 189.488 93.442 184.659 95.448 180.166 98.036 C 175.672 100.629 171.513 103.799 167.803 107.48 C 164.098 111.165 160.841 115.361 158.155 120.005 C 152.367 130.01 149.84 140.63 150.021 150.944 C 150.206 161.263 153.094 171.249 158.161 180.001 C 163.223 188.752 170.45 196.247 179.314 201.564 C 188.173 206.876 198.661 210 210.239 210 Z" style="stroke: url(#color-0); stroke-width: 0px; fill: url(#color-1);">
      <title>Circle</title>
    </path>
  </g>
  <g style="visibility: hidden;">
    <title>purple</title>
    <path d="M 300 150 C 300 232.843 232.843 300 150 300 C 67.157 300 0 232.843 0 150 C 0 67.157 67.157 0 150 0 C 232.843 0 300 67.157 300 150 Z M 30.053 208.307 L 30.055 209.995 L 47.932 209.995 L 47.944 150.222 C 47.944 146.452 48.44 142.759 49.404 139.222 C 50.349 135.68 51.762 132.305 53.576 129.148 C 55.396 125.998 57.613 123.084 60.199 120.482 C 62.778 117.882 65.725 115.6 68.982 113.717 C 76.001 109.656 83.441 107.889 90.672 108.017 C 97.909 108.145 104.899 110.17 111.036 113.721 C 117.169 117.272 122.431 122.345 126.159 128.562 C 129.887 134.773 132.068 142.116 132.068 150.237 L 132.095 208.232 L 132.095 209.923 L 149.973 209.923 L 150.006 150.222 C 150.006 144.849 149.292 139.585 147.929 134.534 C 146.565 129.482 144.558 124.653 141.97 120.159 C 139.377 115.665 136.208 111.507 132.527 107.796 C 128.842 104.091 124.645 100.835 120.001 98.149 C 109.997 92.361 99.375 89.833 89.063 90.014 C 78.744 90.2 68.758 93.087 60.006 98.154 C 51.254 103.217 43.76 110.444 38.442 119.307 C 33.131 128.167 30.006 138.655 30.006 150.233 Z M 268.313 209.954 L 270.001 209.951 L 270.001 192.075 L 210.228 192.063 C 206.458 192.062 202.765 191.566 199.228 190.602 C 195.687 189.657 192.311 188.245 189.154 186.43 C 186.004 184.609 183.09 182.394 180.488 179.808 C 177.888 177.228 175.606 174.281 173.723 171.024 C 169.662 164.006 167.895 156.566 168.023 149.335 C 168.151 142.098 170.176 135.108 173.727 128.971 C 177.278 122.837 182.351 117.575 188.568 113.848 C 194.779 110.119 202.122 107.938 210.243 107.938 L 268.238 107.912 L 269.929 107.912 L 269.929 90.034 L 210.228 90 C 204.856 90 199.592 90.714 194.541 92.078 C 189.488 93.442 184.659 95.448 180.166 98.036 C 175.672 100.629 171.513 103.799 167.803 107.48 C 164.098 111.165 160.841 115.361 158.155 120.005 C 152.367 130.01 149.84 140.63 150.021 150.944 C 150.206 161.263 153.094 171.249 158.161 180.001 C 163.223 188.752 170.45 196.247 179.314 201.564 C 188.173 206.876 198.661 210 210.239 210 Z" style="stroke: url(#color-0); stroke-width: 0px; fill: url(#color-0);">
      <title>Circle</title>
    </path>
  </g>
</svg>