<?xml version="1.0" standalone="no"?>
<!DOCTYPE svg PUBLIC "-//W3C//DTD SVG 20010904//EN"
 "http://www.w3.org/TR/2001/REC-SVG-20010904/DTD/svg10.dtd">
<svg version="1.0" xmlns="http://www.w3.org/2000/svg"
 width="1024.000000pt" height="1024.000000pt" viewBox="0 0 1024.000000 1024.000000"
 preserveAspectRatio="xMidYMid meet">
<metadata>
Created by potrace 1.14, written by Peter Selinger 2001-2017
</metadata>
<g transform="translate(0.000000,1024.000000) scale(0.100000,-0.100000)"
fill="#000000" stroke="none">
<path d="M4587 10234 c-2 -3 -40 -6 -83 -9 -91 -5 -221 -16 -246 -20 -9 -2
-44 -6 -77 -10 -33 -3 -68 -7 -78 -9 -28 -6 -95 -16 -128 -21 -87 -12 -306
-58 -361 -76 -17 -5 -40 -11 -50 -14 -82 -18 -320 -97 -409 -135 -76 -33 -100
-43 -105 -45 -18 -4 -181 -88 -260 -133 -226 -130 -429 -293 -595 -475 -96
-106 -91 -100 -137 -162 -21 -28 -41 -54 -45 -60 -5 -5 -30 -44 -55 -85 -26
-41 -51 -79 -55 -85 -38 -47 -194 -401 -193 -438 0 -4 -6 -20 -14 -35 -29 -57
-91 -331 -111 -488 -4 -27 -9 -62 -12 -79 -12 -72 -16 -178 -18 -455 -1 -163
-5 -316 -9 -340 -21 -143 -29 -597 -13 -755 10 -102 22 -194 32 -239 2 -12 7
-37 9 -56 3 -19 10 -50 15 -67 5 -18 8 -33 5 -33 -3 0 0 -8 5 -17 5 -10 11
-31 14 -48 3 -16 10 -43 17 -60 6 -16 12 -32 12 -35 0 -3 4 -15 9 -28 5 -13 9
-27 9 -33 0 -64 248 -543 300 -579 4 -3 9 -10 11 -16 5 -15 72 -95 132 -158
26 -28 47 -55 47 -60 0 -5 2 -7 5 -4 3 3 27 -16 53 -42 98 -97 337 -273 462
-341 25 -13 47 -27 50 -30 5 -6 331 -165 365 -179 11 -4 34 -13 50 -20 88 -37
213 -84 255 -95 3 -1 12 -5 20 -8 37 -16 206 -67 220 -67 9 0 20 -3 24 -7 6
-7 115 -38 166 -49 14 -2 32 -7 40 -10 8 -3 26 -8 40 -11 41 -8 55 -11 60 -14
3 -1 10 -3 15 -4 6 -1 24 -5 40 -9 90 -23 150 -37 178 -42 18 -3 82 -16 142
-29 61 -14 119 -26 130 -28 11 -2 27 -7 35 -10 8 -3 31 -8 51 -11 20 -3 42 -8
50 -10 8 -3 25 -7 39 -10 14 -2 48 -10 75 -16 28 -7 59 -14 70 -15 11 -2 40
-8 65 -15 47 -13 62 -16 120 -25 19 -3 42 -8 50 -11 8 -4 24 -8 35 -10 32 -5
225 -52 285 -69 30 -8 65 -18 77 -20 12 -3 33 -9 45 -14 13 -5 25 -9 28 -9 3
0 12 -3 20 -6 8 -2 40 -12 70 -21 30 -9 87 -29 125 -43 39 -14 75 -27 80 -28
6 -1 49 -20 98 -43 48 -22 90 -41 95 -42 4 0 14 -6 22 -13 8 -6 27 -18 43 -26
15 -7 27 -17 27 -22 0 -4 5 -8 11 -8 10 0 84 -57 123 -94 32 -32 115 -145 136
-185 l19 -38 -36 -54 c-51 -76 -155 -176 -243 -234 -80 -53 -157 -94 -177 -95
-7 0 -13 -4 -13 -8 0 -7 -38 -23 -95 -38 -5 -2 -29 -10 -52 -18 -63 -23 -209
-60 -283 -71 -8 -1 -35 -5 -60 -9 -150 -24 -273 -31 -545 -30 -295 0 -408 6
-575 30 -19 3 -53 7 -75 9 -22 2 -51 6 -65 9 -14 3 -45 7 -70 10 -51 6 -68 9
-205 36 -55 10 -111 21 -125 23 -30 6 -151 34 -200 47 -19 5 -87 23 -150 40
-63 16 -151 41 -195 56 -44 14 -87 27 -95 29 -21 6 -258 90 -295 105 -16 6
-37 13 -45 15 -20 5 -281 110 -348 141 -29 13 -55 24 -57 24 -3 0 -38 15 -77
33 -40 19 -102 47 -138 62 -36 16 -77 37 -93 48 -15 10 -27 16 -27 13 0 -4
-88 39 -195 94 l-195 100 -1 -40 c0 -22 0 -207 -1 -411 0 -296 -3 -369 -13
-365 -15 5 -28 -31 -15 -39 5 -3 7 -15 4 -28 -10 -42 -10 -77 -1 -77 4 0 5 -5
2 -11 -11 -16 -12 -69 -2 -69 4 0 5 -5 2 -11 -10 -15 -12 -69 -3 -69 4 0 4 -8
1 -17 -8 -21 -8 -144 0 -166 3 -9 3 -18 -1 -21 -7 -4 -8 -54 -2 -81 1 -5 1
-12 0 -15 -6 -15 -4 -73 3 -77 4 -2 4 -9 1 -15 -10 -16 -11 -69 -1 -75 4 -2 5
-9 1 -14 -9 -16 -10 -79 -1 -79 4 0 5 -5 2 -10 -8 -13 -12 -100 -5 -100 5 0 4
-25 -3 -98 -2 -17 1 -32 6 -32 4 0 5 -5 2 -11 -11 -16 -12 -69 -2 -69 4 0 5
-5 2 -11 -11 -16 -12 -69 -2 -69 4 0 5 -5 2 -11 -11 -16 -12 -69 -2 -69 4 0 5
-5 2 -11 -11 -16 -12 -69 -2 -69 4 0 5 -5 2 -11 -11 -16 -12 -69 -2 -69 4 0 5
-5 2 -11 -11 -16 -12 -69 -3 -69 5 0 5 -8 1 -17 -9 -20 -10 -113 -1 -128 3 -6
2 -19 -2 -30 -4 -11 -4 -30 1 -42 5 -13 5 -23 1 -23 -8 0 -8 -63 1 -76 3 -6 2
-16 -2 -23 -25 -40 10 -59 259 -141 52 -18 104 -36 115 -40 22 -10 240 -77
355 -110 41 -12 93 -28 115 -36 23 -8 50 -14 61 -14 11 0 24 -3 28 -7 3 -4 12
-8 19 -9 17 -3 81 -19 149 -38 31 -8 67 -18 80 -20 12 -3 50 -12 84 -20 70
-17 110 -26 139 -31 11 -2 20 -4 20 -5 0 -1 7 -3 15 -5 115 -23 197 -40 243
-50 12 -3 36 -7 52 -10 17 -2 41 -6 55 -9 39 -8 166 -29 245 -42 17 -2 41 -6
55 -9 65 -12 118 -18 152 -19 21 -1 38 -3 38 -6 0 -3 8 -6 18 -6 9 -1 46 -4
82 -8 36 -4 85 -10 110 -12 25 -3 61 -7 80 -9 19 -2 69 -7 110 -10 41 -3 95
-8 120 -10 246 -26 1083 -26 1320 0 19 2 64 6 100 9 36 3 81 8 101 11 20 2 56
7 80 9 24 3 55 7 69 10 22 4 66 10 150 21 14 2 35 6 46 8 12 3 38 8 58 11 19
3 57 11 83 17 61 14 82 18 115 24 15 3 69 17 120 31 51 14 100 27 109 29 101
23 401 138 552 212 90 44 277 150 287 163 3 3 26 19 52 35 27 17 48 33 48 38
0 4 6 7 14 7 8 0 16 3 18 8 2 4 23 23 48 42 73 57 187 164 265 250 83 92 105
119 105 130 0 5 3 10 8 10 4 0 23 24 42 53 19 28 40 58 47 65 6 6 15 21 18 32
3 11 11 20 16 20 5 0 9 5 9 10 0 6 12 29 27 53 126 198 269 596 319 887 2 14
7 36 10 50 3 14 8 42 10 63 5 46 12 99 19 157 4 25 7 78 8 117 1 40 5 73 8 73
3 0 6 138 7 308 0 169 4 318 7 332 26 119 26 751 -1 895 -3 17 -7 44 -9 60 -4
41 -24 151 -35 200 -5 22 -14 62 -20 90 -16 79 -95 302 -138 395 -60 127 -162
301 -222 374 -228 281 -475 475 -822 648 -43 21 -81 39 -85 39 -5 0 -15 6 -23
13 -15 12 -192 88 -290 124 -30 11 -64 24 -75 28 -11 4 -22 8 -25 9 -3 1 -12
4 -20 8 -24 9 -200 68 -218 73 -9 2 -80 22 -157 44 -77 22 -149 42 -160 44
-11 3 -65 16 -120 30 -55 14 -144 35 -199 46 -104 23 -122 27 -158 35 -13 3
-39 8 -58 11 -19 3 -55 10 -80 16 -70 15 -83 18 -115 23 -16 2 -41 7 -55 10
-14 3 -45 10 -70 15 -25 5 -56 12 -70 15 -63 13 -156 29 -162 27 -5 -1 -8 2
-8 7 0 5 -8 8 -17 7 -10 -2 -36 1 -58 6 -22 6 -50 12 -62 14 -13 2 -35 7 -50
10 -16 3 -37 7 -48 9 -11 2 -20 4 -20 5 0 1 -9 3 -20 5 -25 4 -177 34 -200 40
-15 3 -63 15 -130 31 -33 8 -67 17 -75 18 -8 2 -35 9 -60 16 -25 7 -46 12 -47
11 -2 0 -22 7 -45 15 -24 9 -50 17 -58 19 -8 2 -15 4 -15 5 0 1 -7 3 -15 5
-78 17 -355 142 -415 187 -51 39 -151 141 -178 182 -24 36 -25 41 -12 66 31
60 158 180 250 237 42 26 207 103 233 108 9 2 45 13 78 23 117 38 268 67 449
86 33 4 80 9 105 12 60 8 712 13 725 6 5 -3 28 -7 50 -8 22 -1 72 -5 110 -9
39 -4 86 -8 105 -10 37 -3 109 -13 150 -20 14 -2 43 -7 65 -10 23 -3 52 -8 65
-11 14 -3 39 -7 55 -9 17 -2 55 -9 85 -15 30 -6 70 -13 89 -16 18 -3 43 -8 55
-11 73 -17 104 -24 131 -29 17 -3 37 -7 45 -10 8 -3 26 -8 38 -10 13 -3 49
-12 80 -20 32 -8 65 -17 75 -20 54 -13 120 -32 222 -62 134 -40 433 -141 467
-159 15 -7 31 -14 35 -14 16 -3 289 -107 348 -134 67 -30 199 -85 204 -85 3 0
6 182 5 405 0 328 2 405 13 405 7 0 13 6 14 13 0 6 1 437 2 955 2 830 0 945
-13 952 -15 7 -164 48 -205 55 -11 2 -54 13 -95 23 -76 20 -214 52 -305 73
-49 11 -70 15 -120 23 -13 3 -28 7 -33 10 -4 2 -26 7 -47 10 -22 3 -62 10 -90
16 -27 6 -62 13 -77 15 -15 2 -36 6 -47 10 -10 3 -32 7 -47 9 -16 2 -47 7 -69
11 -22 4 -49 9 -60 11 -11 2 -33 6 -50 9 -16 3 -43 7 -60 10 -16 3 -46 8 -65
11 -19 3 -46 7 -60 10 -14 2 -47 7 -75 10 -27 3 -59 8 -69 11 -11 3 -36 7 -55
9 -20 2 -49 5 -66 8 -27 5 -64 10 -160 21 -16 2 -46 6 -65 9 -19 3 -62 8 -95
11 -33 3 -80 8 -105 11 -25 2 -70 7 -100 9 -30 3 -75 7 -100 9 -41 5 -113 10
-295 22 -89 7 -903 13 -908 8z"/>
</g>
</svg>
