<svg id="Layer_1" data-name="Layer 1" xmlns="http://www.w3.org/2000/svg" viewBox="0 0 479.64 395.92"><title>Cyclone</title><g id="NjDS41.tif"><path d="M424.58,52.43c.74,1.33.51,2.09-1.08,2.62-4.8,1.6-9.65,3.11-14.3,5.09-12.81,5.48-24.18,13-33.66,23.4-8.45,9.32-17.12,18.52-26.43,27-16.86,15.28-37.12,22.58-59.81,22.4a177.63,177.63,0,0,1-25.93-2.55c-14-2.2-27.18-7.28-40.15-12.86-15.66-6.74-31.2-13.78-47-20.06-18.06-7.15-37-10.44-56.42-11-13.39-.37-26.53,1.08-39.2,5.57-20.35,7.22-35.94,20.54-48,38.18a146.3,146.3,0,0,0-19.1,40.94c-1.22,4-2.07,8.2-3.1,12.31,5.17-5.4,9.72-11.07,14.67-16.37,11.37-12.19,23.92-22.94,38.8-30.72,10.64-5.56,21.85-9.05,34-8.88,10.5.15,20.6,2.5,30.46,6,19.08,6.7,36.59,16.62,54.13,26.47,22.18,12.46,44.19,25.23,68,34.48a194.43,194.43,0,0,0,32,9.51,147.08,147.08,0,0,0,33.8,2.38,112.21,112.21,0,0,0,35.47-6.71c21.69-8,38.05-22.77,51.07-41.32,4.66-6.64,8-14.29,11.27-21.78,7.78-17.91,16.55-35.12,29.41-50.08,9.26-10.77,20.32-18.53,33.85-22.66,4.07-1.24,8.41-1.55,12.61-2.41m-99.1,130.45-.75-.41c-1.77,1.38-3.5,2.81-5.3,4.13-18.7,13.73-40,20.61-62.79,22.85a132,132,0,0,1-31.38-.6,174.79,174.79,0,0,1-39.93-11c-17.8-7-34.53-16.2-51.14-25.61-14.91-8.45-29.75-17.06-44.88-25.12s-31.06-14.91-48.43-17.22A63.5,63.5,0,0,0,83,139.7c-14.42,3.42-26.29,11.25-36.45,21.84-.71.74-1.29,1.62-2,2.54.55.17.73.3.85.25a12.46,12.46,0,0,0,1.36-.65c12.22-6.68,25.34-8.77,39-7.12,13.9,1.67,26.26,7.41,37.67,15.32,11.59,8,21.72,17.75,31.87,27.46,10.5,10.06,20.88,20.27,31.66,30a181.21,181.21,0,0,0,37.7,26.44,141,141,0,0,0,53.84,15.87c17.85,1.5,35.66,1.16,53.1-3.79,13.51-3.83,24.79-10.68,32.92-22.58a209.8,209.8,0,0,0,22-40.15C388.24,200.83,389.37,196.25,390.78,191.78Zm-50.6,84.88c-1.09.32-1.49.4-1.86.55-11.7,4.85-24.07,6-36.5,6.06a167.82,167.82,0,0,1-24.48-1.74,238.4,238.4,0,0,1-27.27-5.45,154.31,154.31,0,0,1-37.65-16,168.6,168.6,0,0,1-35.22-27.22c-1.57-1.58-3-3.28-4.52-4.92a4.29,4.29,0,0,0,.77,2.43A576.65,576.65,0,0,0,219,294.7a16.76,16.76,0,0,0,5.75,4.74c10,4.46,20,9,30.32,12.74a129.57,129.57,0,0,0,37.62,7.62c7.6.39,15.23.12,22.84.3,2,0,2.95-.73,3.79-2.48q6.48-13.6,13.24-27.08C334.84,286,337.41,281.68,340.18,276.66Zm-111.11,35.2-.33.57c.27.61.49,1.24.81,1.81q15.16,27.07,30.38,54.11a6.8,6.8,0,0,0,2.56,2.32c11.34,6.42,23.28,11.24,36.34,12.6a124.4,124.4,0,0,0,12.89.17c1.7,0,2.36-.81,2.07-2.61a44.77,44.77,0,0,1-.55-6.56c-.08-8.68-.3-17.38,0-26.05.2-6.13,1.13-12.24,1.78-18.91C284.71,331.6,255.85,326.8,229.07,311.86Zm107,136.21c-.36-1.1-.43-1.42-.57-1.7-2.75-5.51-5.68-10.93-8.24-16.52a140,140,0,0,1-10.78-33.92c-.38-2.15-1.56-2.65-3.55-2.59a105.55,105.55,0,0,1-34.42-5.06c-2-.62-4.07-1.28-6.58-2.07a15.76,15.76,0,0,0,.94,2.09c7.13,10.36,14,20.95,21.52,31a81.24,81.24,0,0,0,33.46,26C330.32,446.34,333,447,336.07,448.07Z" transform="translate(-10.36 -52.15)" style="fill:#fff"/><path d="M489.87,61.33c-4.19.87-8.54,1.17-12.61,2.41-13.52,4.13-24.59,11.89-33.85,22.66-12.86,15-21.63,32.17-29.41,50.08-3.26,7.49-6.62,15.14-11.27,21.78-13,18.55-29.38,33.36-51.07,41.32a112.21,112.21,0,0,1-35.47,6.71,147.08,147.08,0,0,1-33.8-2.38,194.43,194.43,0,0,1-32-9.51c-23.8-9.26-45.81-22-68-34.48-17.54-9.85-35.05-19.77-54.13-26.47-9.86-3.46-20-5.82-30.46-6-12.12-.17-23.33,3.32-34,8.88-14.88,7.77-27.44,18.53-38.8,30.72-4.94,5.3-9.5,11-14.67,16.37,1-4.11,1.88-8.26,3.1-12.31a146.3,146.3,0,0,1,19.1-40.94c12.07-17.64,27.66-31,48-38.18,12.67-4.5,25.8-5.94,39.2-5.57,19.42.53,38.36,3.81,56.42,11,15.84,6.28,31.38,13.32,47,20.06,13,5.58,26.14,10.67,40.15,12.86a177.63,177.63,0,0,0,25.93,2.55c22.69.18,43-7.12,59.81-22.4,9.31-8.44,18-17.64,26.43-27,9.48-10.45,20.85-17.92,33.66-23.4,4.64-2,22-8,34.25-8,33.07,0,46.63,9.94,46.54,9.8" transform="translate(-10.36 -52.15)"/><path d="M390.78,191.78c-1.41,4.47-2.54,9-4.28,13.38a209.8,209.8,0,0,1-22,40.15c-8.13,11.9-19.41,18.75-32.92,22.58-17.44,4.95-35.25,5.29-53.1,3.79a141,141,0,0,1-53.84-15.87A181.21,181.21,0,0,1,187,229.37c-10.78-9.75-21.16-20-31.66-30-10.14-9.72-20.28-19.43-31.87-27.46C112,164,99.66,158.24,85.76,156.57c-13.68-1.64-26.8.45-39,7.12a12.46,12.46,0,0,1-1.36.65c-.12,0-.3-.08-.85-.25.72-.92,1.3-1.8,2-2.54,10.16-10.59,22-18.42,36.45-21.84a63.5,63.5,0,0,1,23.19-.87c17.36,2.31,33.18,9.1,48.43,17.22s30,16.66,44.88,25.12c16.61,9.42,33.35,18.58,51.14,25.61a174.79,174.79,0,0,0,39.93,11,132,132,0,0,0,31.38.6c22.83-2.24,44.09-9.12,62.79-22.85,1.81-1.33,3.54-2.75,5.3-4.13Z" transform="translate(-10.36 -52.15)"/><path d="M340.18,276.66c-2.77,5-5.34,9.37-7.61,13.88q-6.77,13.46-13.24,27.08c-.84,1.76-1.76,2.53-3.79,2.48-7.61-.18-15.24.09-22.84-.3a129.57,129.57,0,0,1-37.62-7.62c-10.29-3.73-20.3-8.28-30.32-12.74A16.76,16.76,0,0,1,219,294.7a576.65,576.65,0,0,1-45.57-64.31,4.29,4.29,0,0,1-.77-2.43c1.5,1.64,2.95,3.35,4.52,4.92a168.6,168.6,0,0,0,35.22,27.22,154.31,154.31,0,0,0,37.65,16,238.4,238.4,0,0,0,27.27,5.45,167.82,167.82,0,0,0,24.48,1.74c12.43-.07,24.81-1.21,36.5-6.06C338.69,277.06,339.09,277,340.18,276.66Z" transform="translate(-10.36 -52.15)"/><path d="M229.07,311.86c26.78,14.94,55.64,19.73,85.94,17.45-.66,6.67-1.58,12.78-1.78,18.91-.28,8.68-.07,17.37,0,26.05a44.77,44.77,0,0,0,.55,6.56c.28,1.8-.37,2.61-2.07,2.61a124.4,124.4,0,0,1-12.89-.17c-13.06-1.36-25-6.19-36.34-12.6a6.8,6.8,0,0,1-2.56-2.32q-15.26-27-30.38-54.11c-.32-.58-.54-1.21-.81-1.81Z" transform="translate(-10.36 -52.15)"/><path d="M336.07,448.07c-3.11-1-5.75-1.73-8.22-2.79a81.24,81.24,0,0,1-33.46-26c-7.56-10-14.39-20.63-21.52-31a15.76,15.76,0,0,1-.94-2.09c2.52.79,4.55,1.45,6.58,2.07a105.55,105.55,0,0,0,34.42,5.06c2-.06,3.17.43,3.55,2.59a140,140,0,0,0,10.78,33.92c2.56,5.59,5.49,11,8.24,16.52C335.65,446.65,335.71,447,336.07,448.07Z" transform="translate(-10.36 -52.15)"/></g></svg>