<?xml version="1.0" standalone="no"?>
<!DOCTYPE svg PUBLIC "-//W3C//DTD SVG 20010904//EN"
 "http://www.w3.org/TR/2001/REC-SVG-20010904/DTD/svg10.dtd">
<svg version="1.0" xmlns="http://www.w3.org/2000/svg"
 width="1024.000000pt" height="1024.000000pt" viewBox="0 0 1024.000000 1024.000000"
 preserveAspectRatio="xMidYMid meet">
<metadata>
Created by potrace 1.11, written by Peter Selinger 2001-2013
</metadata>
<g transform="translate(0.000000,1024.000000) scale(0.100000,-0.100000)"
fill="#000000" stroke="none">
<path d="M2825 7005 c-98 -18 -218 -66 -305 -124 -102 -67 -2306 -2268 -2375
-2371 -95 -143 -135 -269 -140 -440 -5 -190 36 -336 138 -490 165 -248 435
-383 736 -367 115 6 192 23 286 64 135 59 189 105 585 499 211 211 386 381
388 379 2 -2 5 -50 7 -107 5 -205 54 -356 164 -503 275 -366 803 -444 1166
-172 22 17 212 202 423 411 210 210 382 379 383 376 0 -3 2 -56 4 -117 12
-359 214 -652 536 -778 261 -103 568 -61 794 108 33 24 226 211 430 415 203
204 372 369 376 366 3 -2 7 -43 7 -91 2 -138 19 -228 63 -335 92 -223 285
-403 510 -476 248 -81 512 -43 736 105 72 47 2270 2242 2338 2334 26 35 59 87
73 114 26 51 74 185 67 185 -3 0 0 12 6 28 18 44 20 238 4 321 -63 322 -317
590 -625 657 -19 4 -42 9 -50 12 -37 9 -230 10 -280 1 -66 -12 -189 -53 -245
-82 -98 -49 -178 -121 -536 -478 -209 -209 -382 -379 -384 -377 -2 2 -6 56 -9
120 -3 64 -13 148 -22 185 -15 60 -26 89 -77 206 -6 15 -15 27 -19 27 -5 0 -8
5 -8 11 0 16 -81 118 -137 170 -70 68 -224 166 -273 174 -3 0 -21 6 -41 13
-240 83 -528 38 -744 -116 -27 -20 -222 -207 -433 -416 -211 -210 -384 -382
-385 -383 -1 -1 -3 49 -4 110 -4 245 -80 431 -243 598 -85 87 -262 199 -314
199 -8 0 -17 4 -20 9 -3 4 -25 12 -48 16 -24 4 -59 10 -78 13 -75 14 -263 5
-342 -16 -202 -55 -250 -92 -705 -545 l-391 -390 -1 111 c-1 401 -250 725
-636 828 -78 21 -261 26 -350 9z m340 -320 c138 -55 240 -150 299 -279 45 -98
49 -144 49 -619 l0 -448 74 73 c41 40 318 318 616 616 298 299 565 561 593
582 125 94 288 130 441 98 208 -44 383 -234 411 -447 4 -31 7 -248 7 -483 0
-236 3 -428 7 -428 5 0 289 281 633 625 366 366 647 639 678 659 116 74 256
100 397 75 147 -27 305 -148 368 -280 58 -125 59 -136 60 -620 1 -244 1 -451
2 -458 0 -8 285 269 633 617 347 347 643 640 657 650 79 60 177 93 290 97 167
7 288 -40 405 -159 73 -74 114 -145 140 -240 17 -65 13 -224 -8 -291 -40 -124
-43 -127 -1203 -1287 -610 -610 -1131 -1124 -1159 -1142 -79 -53 -159 -78
-261 -83 -108 -7 -170 6 -269 53 -146 69 -261 222 -291 386 -3 18 -6 237 -6
486 l-1 454 -646 -644 c-499 -498 -658 -650 -700 -672 -164 -87 -355 -88 -516
-3 -115 61 -231 204 -259 322 -5 17 -10 39 -13 50 -3 11 -6 227 -8 480 -1 253
-3 460 -4 461 0 1 -290 -288 -643 -641 -621 -620 -646 -643 -718 -678 -127
-60 -238 -72 -379 -43 -14 3 -58 21 -99 41 -96 45 -195 143 -240 235 -55 111
-59 154 -60 600 0 223 -1 424 -1 448 l-1 43 -619 -619 c-341 -341 -639 -635
-663 -654 -164 -131 -428 -144 -606 -29 -100 64 -178 162 -222 276 -31 81 -36
239 -10 324 41 136 6 98 1209 1302 1210 1209 1168 1171 1306 1210 93 27 240
20 330 -16z"/>
</g>
</svg>
