<?xml version="1.0" standalone="no"?>
<!DOCTYPE svg PUBLIC "-//W3C//DTD SVG 20010904//EN"
 "http://www.w3.org/TR/2001/REC-SVG-20010904/DTD/svg10.dtd">
<svg version="1.0" xmlns="http://www.w3.org/2000/svg"
 width="512.000000pt" height="512.000000pt" viewBox="0 0 512.000000 512.000000"
 preserveAspectRatio="xMidYMid meet">
<metadata>
Created by potrace 1.11, written by Peter Selinger 2001-2013
</metadata>
<g transform="translate(0.000000,512.000000) scale(0.100000,-0.100000)"
fill="#000000" stroke="none">
<path d="M1219 3558 c0 -13 -2 -32 -4 -43 -4 -21 -14 -91 -20 -140 -12 -88
-32 -234 -40 -275 -2 -14 -7 -47 -10 -75 -8 -64 -11 -88 -29 -215 -14 -92 -56
-400 -72 -515 -3 -22 -7 -52 -10 -66 -2 -15 -6 -47 -9 -70 -3 -24 -8 -55 -10
-69 -2 -14 -7 -45 -10 -70 -3 -25 -8 -56 -10 -70 -2 -14 -7 -50 -10 -80 -4
-30 -9 -62 -10 -71 -2 -9 -6 -40 -10 -69 -4 -29 -8 -62 -11 -73 -2 -10 -6 -44
-10 -73 l-6 -54 625 0 625 0 11 33 c5 17 31 108 56 202 26 93 48 172 51 176 2
4 -2 9 -9 11 -6 2 -180 4 -385 4 l-374 -1 7 55 c9 80 13 113 30 230 9 58 18
123 20 145 9 68 23 165 30 205 2 14 7 48 10 75 3 28 8 61 10 75 2 14 6 48 10
75 3 28 10 77 15 110 9 59 15 103 25 188 3 23 8 53 10 67 5 28 14 96 30 215 3
28 11 77 16 110 5 33 9 63 9 68 0 4 -121 7 -270 7 l-270 0 -1 -22z"/>
<path d="M2723 3573 c3 -5 2 -29 -3 -53 -4 -25 -11 -67 -15 -95 -7 -59 -13
-101 -20 -152 -12 -81 -16 -109 -20 -138 -29 -220 -31 -239 -45 -330 -5 -33
-12 -80 -15 -105 -3 -25 -8 -56 -10 -70 -3 -21 -11 -73 -41 -300 -3 -19 -7
-46 -9 -60 -3 -14 -7 -47 -10 -75 -3 -27 -8 -61 -10 -75 -7 -39 -13 -77 -29
-200 -35 -255 -47 -336 -51 -362 l-4 -28 269 0 c209 0 270 3 271 13 0 6 2 19
3 27 2 8 7 40 11 70 4 30 8 62 10 70 3 19 17 127 29 225 4 28 9 63 12 78 6 31
8 40 19 132 4 33 10 78 14 100 l7 40 77 -1 c42 0 79 -2 81 -5 2 -2 59 -148
126 -324 67 -176 127 -333 135 -350 7 -16 16 -40 20 -52 l6 -23 290 0 c159 0
289 3 289 8 0 6 -125 292 -194 447 -138 304 -166 369 -166 380 0 7 17 20 38
31 71 36 181 114 228 161 146 148 205 358 164 583 -35 192 -212 355 -440 404
-41 9 -86 19 -100 23 -39 10 -923 16 -917 6z m777 -391 c104 -34 133 -78 134
-197 1 -129 -45 -224 -135 -281 -54 -33 -116 -46 -246 -47 -131 -2 -121 -18
-98 143 9 58 17 122 20 144 3 21 7 50 9 65 3 14 8 51 12 81 4 30 9 58 10 63 1
4 2 16 3 28 1 20 6 20 124 18 75 -1 139 -8 167 -17z"/>
</g>
</svg>
