<svg width="420" height="338" viewBox="0 0 420 338" xmlns="http://www.w3.org/2000/svg"><g transform="translate(1 1)" fill="none" fill-rule="evenodd"><rect stroke="#EFF1F5" stroke-width="2" fill="#FFF" width="418" height="336" rx="4"/><path stroke="#00A1E0" stroke-width="2" d="M18 14l-3 3 3 3"/><path fill="#00A1E0" d="M16 16h7v2h-7z"/><path fill="#F0F4FA" d="M1 33h416v80H1z"/><path fill="#FAFBFD" d="M417 303V113H1v190"/><path d="M204.7 19.36c1.84-1.9 4.4-3.1 7.23-3.1 3.76 0 7.04 2.1 8.78 5.22 1.53-.68 3.2-1.06 4.98-1.06 6.78 0 12.27 5.56 12.27 12.4 0 6.87-5.5 12.43-12.27 12.43-.83 0-1.64-.08-2.42-.24-1.54 2.76-4.47 4.62-7.83 4.62-1.4 0-2.74-.33-3.93-.9-1.56 3.67-5.2 6.24-9.42 6.24-4.4 0-8.17-2.8-9.6-6.7-.64.12-1.3.2-1.96.2-5.25 0-9.5-4.32-9.5-9.64 0-3.56 1.9-6.67 4.74-8.34-.58-1.35-.9-2.84-.9-4.4 0-6.12 4.95-11.07 11.05-11.07 3.6 0 6.8 1.72 8.8 4.36" fill="#00A1E1"/><path d="M189.28 35.7c-.04.1 0 .12.02.14.1.08.22.13.33.2.58.3 1.13.4 1.7.4 1.17 0 1.9-.63 1.9-1.63 0-.94-.82-1.28-1.6-1.52l-.1-.03c-.57-.2-1.07-.35-1.07-.73v-.03c0-.33.3-.57.74-.57.5 0 1.1.16 1.5.38 0 0 .1.08.14-.03l.24-.64c.02-.06-.02-.1-.06-.13-.44-.27-1.04-.45-1.67-.45h-.12c-1.07 0-1.8.65-1.8 1.57v.02c0 .98.8 1.3 1.58 1.52l.14.04c.56.17 1.04.32 1.04.72v.02c0 .36-.3.63-.82.63-.2 0-.83 0-1.5-.43-.1-.05-.13-.1-.2-.13-.03 0-.1-.04-.15.07l-.22.64zm17.1 0c-.04.1 0 .12.02.14.1.08.22.13.33.2.58.3 1.13.4 1.7.4 1.17 0 1.9-.63 1.9-1.63 0-.94-.82-1.28-1.6-1.52l-.1-.03c-.57-.2-1.07-.35-1.07-.73v-.03c0-.33.3-.57.74-.57.5 0 1.1.16 1.5.38 0 0 .1.08.14-.03l.24-.64c.02-.06-.02-.1-.06-.13-.44-.27-1.04-.45-1.67-.45h-.12c-1.07 0-1.8.65-1.8 1.57v.02c0 .98.8 1.3 1.58 1.52l.14.04c.56.17 1.04.32 1.04.72v.02c0 .36-.3.63-.82.63-.2 0-.83 0-1.5-.43-.1-.05-.14-.1-.2-.13-.02 0-.12-.04-.15.07l-.22.64zm12.65-2.96c-.1-.32-.24-.6-.44-.84s-.46-.43-.76-.57c-.3-.14-.65-.2-1.04-.2-.4 0-.75.06-1.05.2-.3.14-.55.33-.75.57-.2.24-.35.52-.44.84-.1.33-.14.68-.14 1.06 0 .37.04.72.14 1.05.1.32.24.6.44.85.2.23.45.43.75.56.3.14.65.2 1.05.2s.74-.06 1.04-.2c.3-.13.55-.33.75-.56.2-.24.34-.53.43-.85.1-.33.15-.68.15-1.05 0-.38-.05-.73-.15-1.06zm-.97 1.06c0 .56-.1 1-.3 1.32-.22.32-.53.47-.96.47-.44 0-.75-.16-.95-.48-.2-.3-.3-.76-.3-1.32 0-.57.1-1.02.3-1.33.2-.3.5-.46.95-.46.43 0 .74.16.95.47.2.3.3.76.3 1.33zm8.95 1.62c-.02-.1-.12-.06-.12-.06-.14.06-.3.1-.45.13-.16.02-.34.03-.53.03-.48 0-.85-.14-1.12-.42-.27-.27-.42-.72-.42-1.32 0-.56.14-.97.38-1.3.23-.3.6-.47 1.08-.47.4 0 .7.06 1.03.16 0 0 .08.03.1-.07l.25-.68c.03-.07-.04-.1-.06-.1-.13-.06-.42-.14-.65-.18-.22-.03-.47-.04-.74-.04-.4 0-.78.06-1.1.2-.3.14-.56.34-.77.57-.22.24-.38.53-.5.85-.1.33-.15.68-.15 1.06 0 .8.22 1.46.65 1.94.43.48 1.08.73 1.93.73.5 0 1-.1 1.38-.25 0 0 .08-.03.05-.12l-.24-.66zm5.02-2.9c-.08-.3-.3-.63-.42-.78-.22-.22-.42-.38-.63-.47-.27-.12-.6-.2-.95-.2-.4 0-.78.07-1.1.22-.3.13-.55.32-.75.57-.2.24-.35.53-.44.86-.1.32-.15.68-.15 1.05 0 .38.05.74.15 1.06.1.32.26.6.48.84.23.24.5.42.84.55.33.13.74.2 1.2.2.95 0 1.45-.22 1.66-.34.04-.03.07-.06.03-.16l-.22-.6c-.02-.1-.1-.07-.1-.07-.25.1-.58.25-1.37.25-.5 0-.9-.15-1.13-.4-.24-.23-.36-.6-.38-1.1h3.3s.1 0 .1-.08c0-.03.1-.68-.1-1.42zm-3.28.7c.04-.32.13-.6.26-.8.2-.3.5-.47.95-.47.43 0 .72.17.92.48.14.2.2.48.22.78h-2.36zm-23.17-.7c-.08-.3-.3-.63-.42-.78-.22-.22-.42-.38-.63-.47-.27-.12-.6-.2-.94-.2-.42 0-.8.07-1.1.22-.3.13-.55.32-.75.57-.2.24-.36.53-.45.86-.1.32-.15.68-.15 1.05 0 .38.05.74.15 1.06.1.32.27.6.48.84.22.24.5.42.83.55.32.13.73.2 1.2.2.94 0 1.45-.22 1.65-.34.04-.03.07-.06.03-.16l-.2-.6c-.05-.1-.14-.07-.14-.07-.24.1-.57.25-1.36.25-.5 0-.9-.15-1.12-.4-.25-.23-.37-.6-.4-1.1h3.3s.1 0 .1-.08c0-.03.12-.68-.1-1.42zm-3.28.7c.03-.32.12-.6.25-.8.2-.3.5-.47.95-.47.43 0 .72.17.92.48.14.2.2.48.22.78h-2.35zm-5.82-.12l-.52-.02c-.28 0-.56.04-.8.1-.27.08-.5.18-.7.33-.2.15-.36.33-.48.55-.12.22-.18.48-.18.77 0 .3.05.54.15.75.1.2.25.38.44.52.17.12.4.22.66.28.26.06.55.1.87.1.34 0 .68-.04 1-.1.33-.05.72-.13.84-.16l.23-.05c.08-.03.07-.1.07-.1v-3.04c0-.66-.18-1.15-.52-1.46-.35-.3-.86-.46-1.52-.46-.25 0-.65.05-.88.1 0 0-.73.13-1.02.37 0 0-.07.04-.03.13l.23.63c.03.08.1.05.1.05l.06-.02c.63-.35 1.43-.34 1.43-.34.36 0 .63.07.82.2.18.15.27.36.27.8v.14l-.54-.06zm-1.32 2.32c-.13-.1-.14-.13-.2-.2-.05-.1-.1-.24-.1-.42 0-.3.1-.5.3-.64 0 0 .3-.25.97-.24.47 0 .9.07.9.07v1.5s-.43.1-.9.12c-.67.04-.97-.2-.97-.2zm27.96-4.06c.02-.08-.03-.1-.05-.12-.06-.02-.34-.08-.55-.1-.42-.02-.65.05-.85.14-.2.1-.44.24-.56.4v-.4c0-.05-.03-.1-.1-.1h-.83c-.06 0-.1.05-.1.1v4.94c0 .06.05.1.1.1h.87c.05 0 .1-.04.1-.1v-2.46c0-.33.04-.66.1-.87.08-.2.18-.38.3-.5.12-.1.25-.2.4-.24.16-.05.33-.06.45-.06.16 0 .35.04.35.04.06 0 .1-.03.12-.1l.25-.68zm-8.16-2.3l-.32-.07c-.13-.03-.28-.04-.45-.04-.6 0-1.08.17-1.4.5-.34.33-.56.84-.67 1.5l-.04.23h-.76s-.1-.02-.1.08l-.14.7c0 .06.02.1.1.1h.74l-.74 4.14c-.06.33-.12.6-.2.8-.07.22-.14.37-.23.48-.08.1-.16.2-.3.24-.1.04-.24.05-.4.05-.07 0-.17-.02-.25-.04-.08 0-.12-.03-.18-.05 0 0-.1-.03-.12.06l-.24.67c-.03.07 0 .12.05.13l.3.1c.18.04.34.04.48.04.32 0 .6-.04.82-.13.23-.08.43-.23.6-.42.2-.22.33-.44.44-.74.1-.3.2-.67.3-1.1l.73-4.22h1.08s.1 0 .1-.1l.14-.7c0-.05-.02-.1-.1-.1h-1.07c0-.02.06-.4.18-.74.05-.15.15-.27.23-.35.08-.1.17-.15.27-.2.1-.02.23-.04.36-.04.1 0 .2 0 .26.03.1 0 .14.02.17.03.1.03.12 0 .14-.05l.25-.7c.03-.07-.03-.1-.06-.1zm-14.72 7.2c0 .06-.04.1-.1.1h-.87c-.06 0-.1-.04-.1-.1V29.2c0-.06.04-.1.1-.1h.87c.06 0 .1.04.1.1v7.06z" fill="#FFF"/><circle fill="#8AD358" cx="119.5" cy="319.5" r="7.5"/><circle fill="#50C8E3" cx="164.5" cy="319.5" r="7.5"/><circle fill="#B8AC95" cx="209.5" cy="319.5" r="7.5"/><circle fill="#36BF7E" cx="254.5" cy="319.5" r="7.5"/><circle fill="#00A1E0" cx="299.5" cy="319.5" r="7.5"/><circle fill="#FFF" cx="295.5" cy="319.5" r="1"/><circle fill="#FFF" cx="299.5" cy="319.5" r="1"/><circle fill="#FFF" cx="303.5" cy="319.5" r="1"/><rect fill="#FFC059" x="13" y="61" width="24" height="24" rx="3"/><path d="M30.93 71.15c-.6.76-1.6 1.5-2.66 1.5-1.63 0-2.27-2.1-2.63-3l-.14-.36c.45-.18.77-.6.77-1.12 0-.65-.53-1.18-1.18-1.18-.66 0-1.2.53-1.2 1.18 0 .5.3.9.72 1.1-.4 1.24-1.32 3.36-2.7 3.36-1.5 0-2.3-.93-2.73-1.66.1-.18.16-.4.16-.62 0-.65-.53-1.18-1.18-1.18-.65 0-1.18.53-1.18 1.18 0 .66.53 1.2 1.18 1.2l.08-.02 1.7 4.46H30l1.87-4.46C32.5 71.52 33 71 33 70.36c0-.65-.53-1.18-1.18-1.18-.65 0-1.18.53-1.18 1.18 0 .3.1.58.3.8zM20 77h10l-.5 1.5h-9L20 77z" fill="#FFF"/><rect fill="#CBD7E7" x="49" y="65" width="60" height="5" rx="1"/><rect fill="#E2E8F0" x="49" y="76" width="100" height="5" rx="1"/><rect fill="#E1E8F0" x="13" y="110" width="24" height="3" rx="1"/><rect fill="#E1E8F0" x="85" y="110" width="24" height="3" rx="1"/><rect fill="#00A1E0" x="49" y="110" width="24" height="3" rx="1"/><path d="M16 125h59l6 9-6 9H16c-1.66 0-3-1.35-3-3v-12c0-1.66 1.35-3 3-3z" fill="#0AC97E"/><path fill="#0AC97E" d="M84 134l-6-9h62l6 9-6 9H78"/><path fill="#0AC97E" d="M149 134l-6-9h62l6 9-6 9h-62"/><path fill="#00A1E0" d="M214 134l-6-9h62l6 9-6 9h-62"/><path stroke="#EDF1F7" stroke-width="2" fill="#FFF" d="M275 142l5-8-5-8h60l5 8-5 8z"/><path d="M345 134l-5-8h61c1.65 0 3 1.34 3 3v10c0 1.65-1.34 3-3 3h-61.33.33l5-8z" stroke="#EDF1F7" stroke-width="2" fill="#FFF"/><rect fill="#EDF1F7" x="12" y="155" width="200" height="136" rx="3"/><rect fill="#FFF" x="13" y="156" width="198" height="133" rx="2"/><path fill="#F3F6FA" d="M1 303h416v1H1z"/><path stroke="#FFF" stroke-width="2" d="M40 134l3 2.5 5-5.5M108 134l3 2.5 5-5.5"/><path stroke="#FFF" stroke-width="1.5" d="M251.5 319.5l1.95 2 4.1-4.5"/><path stroke="#FFF" stroke-width="2" d="M173 134l3 2.5 5-5.5"/><rect fill="#90DAF0" x="235" y="133" width="14" height="2" rx=".5"/><rect fill="#EDF1F7" x="301" y="133" width="13" height="2" rx=".5"/><rect fill="#EDF1F7" x="367" y="133" width="13" height="2" rx=".5"/><path fill="#F4F7FB" d="M13 199h198v2H13z"/><path fill="#EFF2F8" d="M224 199h181v2H224z"/><path fill="#F4F7FB" d="M13 244h198v2H13z"/><rect fill="#E3E7ED" x="25" y="172" width="70" height="3" rx="1"/><rect fill="#F5F6F8" x="25" y="180" width="60" height="3" rx="1"/><rect fill="#80D0EF" x="187" y="176" width="10" height="3" rx="1"/><rect fill="#E3E7ED" x="25" y="217" width="40" height="3" rx="1"/><rect fill="#F5F6F8" x="25" y="225" width="60" height="3" rx="1"/><rect fill="#80D0EF" x="187" y="221" width="10" height="3" rx="1"/><rect fill="#E3E7ED" x="25" y="262" width="60" height="3" rx="1"/><rect fill="#F5F6F8" x="25" y="270" width="50" height="3" rx="1"/><rect fill="#E3E7ED" x="224" y="172" width="70" height="3" rx="1"/><rect fill="#EFF2F8" x="224" y="180" width="40" height="3" rx="1"/><rect fill="#EFF2F8" x="233" y="218" width="59" height="3" rx="1"/><rect fill="#80D0EF" x="187" y="266" width="10" height="3" rx="1"/><circle fill="#DADFE6" cx="225.5" cy="219.5" r="1.5"/><rect fill="#EFF2F8" x="233" y="228" width="47" height="3" rx="1"/><circle fill="#DADFE6" cx="225.5" cy="229.5" r="1.5"/><rect fill="#EFF2F8" x="233" y="239" width="50" height="3" rx="1"/><circle fill="#DADFE6" cx="225.5" cy="240.5" r="1.5"/><rect fill="#EFF2F8" x="233" y="249" width="40" height="3" rx="1"/><circle fill="#DADFE6" cx="225.5" cy="250.5" r="1.5"/><rect fill="#EFF2F8" x="233" y="260" width="50" height="3" rx="1"/><circle fill="#DADFE6" cx="225.5" cy="261.5" r="1.5"/><rect fill="#00A1E0" x="335" y="169" width="70" height="14" rx="3"/><rect fill="#90DAF0" x="363" y="175" width="14" height="2" rx=".5"/><path d="M208 316h2l2 2v4c0 .55-.44 1-1 1h-3c-.55 0-1-.44-1-1v-5c0-.55.45-1 1-1z" fill="#FFF"/><path fill="#E3E7ED" d="M208.5 319h2v1h-2zM208.5 321h2v1h-2z"/><path d="M163.1 321.68c-1.3-.45-2.22-1.52-2.22-2.76 0-1.66 1.62-3 3.62-3s3.63 1.34 3.63 3c0 1.54-1.4 2.8-3.22 2.98-.44.8-1.27 1.6-2.92 1.7.37-.56.8-1.22 1.1-1.92z" fill="#FFF"/><rect fill="#FFF" x="116" y="317" width="2" height="6" rx="1"/><rect fill="#FFF" x="121" y="317" width="2" height="6" rx="1"/><rect fill="#FFF" x="115" y="316" width="9" height="2" rx="1"/><path fill="#FFF" d="M118.5 319h2v1h-2z"/></g></svg>