<?xml version="1.0" encoding="UTF-8"?>
<svg version="1.1" viewBox="0 0 90 128" xmlns="http://www.w3.org/2000/svg" xmlns:cc="http://creativecommons.org/ns#" xmlns:dc="http://purl.org/dc/elements/1.1/" xmlns:rdf="http://www.w3.org/1999/02/22-rdf-syntax-ns#">
<metadata>
<rdf:RDF>
<cc:Work rdf:about="">
<dc:format>image/svg+xml</dc:format>
<dc:type rdf:resource="http://purl.org/dc/dcmitype/StillImage"/>
<dc:title/>
</cc:Work>
</rdf:RDF>
</metadata>
<g>
<g aria-label="S">
<path d="m82.171 15.776v24.043q-9.3583-4.1846-18.26-6.315-8.9018-2.1304-16.815-2.1304-10.5 0-15.521 2.8912-5.0215 2.8912-5.0215 8.9779 0 4.565 3.3477 7.1519 3.4238 2.5108 12.326 4.3368l12.478 2.5108q18.945 3.8042 26.934 11.565t7.9888 22.064q0 18.793-11.184 27.999-11.108 9.1301-34.01 9.1301-10.804 0-21.684-2.0543-10.88-2.0543-21.76-6.0867v-24.727q10.88 5.7824 20.999 8.7497 10.195 2.8912 19.63 2.8912 9.5866 0 14.684-3.1955 5.0976-3.1955 5.0976-9.1301 0-5.3259-3.4999-8.2171-3.4238-2.8912-13.771-5.1737l-11.337-2.5108q-17.043-3.652-24.956-11.641-7.8367-7.9888-7.8367-21.532 0-16.967 10.956-26.097 10.956-9.1301 31.499-9.1301 9.3583 0 19.249 1.4456 9.8909 1.3695 20.467 4.1846z" fill="#f00" stroke-width="3.8955"/>
</g>
<g fill="#0f0" aria-label="S">
<path d="m82.534 5.6304v24.043q-9.3583-4.1846-18.26-6.315-8.9018-2.1304-16.815-2.1304-10.5 0-15.521 2.8912-5.0215 2.8912-5.0215 8.9779 0 4.565 3.3477 7.1519 3.4238 2.5108 12.326 4.3368l12.478 2.5108q18.945 3.8042 26.934 11.565t7.9888 22.064q0 18.793-11.184 27.999-11.108 9.1301-34.01 9.1301-10.804 0-21.684-2.0543-10.88-2.0543-21.76-6.0867v-24.727q10.88 5.7824 20.999 8.7497 10.195 2.8912 19.63 2.8912 9.5866 0 14.684-3.1955 5.0976-3.1955 5.0976-9.1301 0-5.3259-3.4999-8.2171-3.4238-2.8912-13.771-5.1737l-11.337-2.5108q-17.043-3.652-24.956-11.641-7.8367-7.9888-7.8367-21.532 0-16.967 10.956-26.097 10.956-9.1301 31.499-9.1301 9.3583 0 19.249 1.4456 9.8909 1.3695 20.467 4.1846z" fill="#0f0" stroke-width="3.8955"/>
</g>
</g>
</svg>
