<?xml version="1.0" encoding="UTF-8" standalone="no"?>
<!DOCTYPE svg PUBLIC "-//W3C//DTD SVG 20010904//EN" "http://www.w3.org/TR/2001/REC-SVG-20010904/DTD/svg10.dtd">
<svg version="1.0" xmlns="http://www.w3.org/2000/svg" width="225.000000pt" height="225.000000pt" viewBox="0 0 225.000000 225.000000" preserveAspectRatio="xMidYMid meet">

<g transform="translate(0.000000,225.000000) scale(0.100000,-0.100000)" fill="#000000" stroke="none">
<path d="M0 1125 l0 -1125 1125 0 1125 0 0 1125 0 1125 -1125 0 -1125 0 0 -1125z m1342 866 c243 -63 447 -222 570 -446 l27 -50 -591 -592 -592 -592 -40 21 c-23 11 -54 30 -70 41 l-28 20 363 363 364 364 -110 0 -110 0 -310 -310 c-170 -170 -315 -310 -320 -310 -6 0 -27 20 -47 44 -91 108 -161 247 -195 383 -23 93 -23 303 0 396 89 360 380 630 742 687 86 13 258 4 347 -19z m673 -943 c-43 -435 -382 -772 -815 -813 l-75 -7 445 446 c245 245 447 446 448 446 2 0 1 -33 -3 -72z"/>
</g>
</svg>